<svg xmlns="http://www.w3.org/2000/svg" width="375" viewBox="0 0 375 375" height="375" version="1.0"><defs><clipPath id="a"><path d="M 57.917969 57.917969 L 317.417969 57.917969 L 317.417969 317.417969 L 57.917969 317.417969 Z M 57.917969 57.917969"/></clipPath></defs><path fill="#FFF" d="M-37.5 -37.5H412.5V412.5H-37.5z"/><path fill="#FFF" d="M-37.5 -37.5H412.5V412.5H-37.5z"/><path fill="#FFF" d="M-37.5 -37.5H412.5V412.5H-37.5z"/><g clip-path="url(#a)"><path fill="#424242" d="M 317.417969 187.667969 C 317.417969 259.324219 259.324219 317.417969 187.667969 317.417969 C 116.015625 317.417969 57.917969 259.324219 57.917969 187.667969 C 57.917969 116.015625 116.015625 57.917969 187.667969 57.917969 C 259.324219 57.917969 317.417969 116.015625 317.417969 187.667969 Z M 317.417969 187.667969"/></g><path fill="#FFF" d="M 193.171875 110.628906 C 188.207031 108.507812 182.460938 110.773438 180.351562 115.714844 L 122.996094 249.300781 C 122.332031 250.832031 123.460938 252.542969 125.128906 252.542969 L 139.570312 252.542969 C 141.515625 252.542969 143.273438 251.382812 144.039062 249.597656 L 167.980469 193.839844 L 236.625 250.324219 C 238.421875 251.804688 240.613281 252.542969 242.8125 252.542969 C 244.867188 252.542969 246.933594 251.886719 248.671875 250.585938 C 252.257812 247.871094 253.53125 243.058594 251.738281 238.933594 L 198.21875 115.671875 C 197.199219 113.316406 195.355469 111.578125 193.171875 110.628906 Z M 175.976562 175.210938 L 189.335938 144.097656 L 217.785156 209.621094 Z M 175.976562 175.210938"/></svg>