<svg xmlns="http://www.w3.org/2000/svg" width="375" viewBox="0 0 375 375" height="375" version="1.0"><defs><clipPath id="a"><path d="M 31 86 L 344.519531 86 L 344.519531 290 L 31 290 Z M 31 86"/></clipPath></defs><path fill="#FFF" d="M-37.5 -37.5H412.5V412.5H-37.5z"/><path fill="#FFF" d="M-37.5 -37.5H412.5V412.5H-37.5z"/><path fill="#FFF" d="M-37.5 -37.5H412.5V412.5H-37.5z"/><g clip-path="url(#a)"><path fill="#364548" d="M 194.109375 150.738281 L 226.082031 150.738281 L 226.082031 183.410156 L 242.253906 183.410156 C 249.722656 183.410156 257.390625 182.078125 264.472656 179.683594 C 267.941406 178.507812 271.839844 176.867188 275.269531 174.808594 C 270.757812 168.917969 268.449219 161.488281 267.769531 154.152344 C 266.84375 144.183594 268.867188 131.203125 275.605469 123.398438 L 278.972656 119.515625 L 282.972656 122.734375 C 293.054688 130.828125 301.542969 142.136719 303.027344 155.039062 C 315.167969 151.46875 329.421875 152.316406 340.125 158.492188 L 344.519531 161.019531 L 342.210938 165.53125 C 333.164062 183.1875 314.242188 188.648438 295.738281 187.683594 C 268.058594 256.59375 207.789062 289.210938 134.714844 289.210938 C 96.964844 289.210938 62.320312 275.113281 42.605469 241.632812 L 42.28125 241.085938 L 39.398438 235.25 C 32.734375 220.511719 30.519531 204.375 32.015625 188.242188 L 32.472656 183.410156 L 59.816406 183.410156 L 59.816406 150.738281 L 91.789062 150.738281 L 91.789062 118.785156 L 155.734375 118.785156 L 155.734375 86.832031 L 194.109375 86.832031 Z M 194.109375 150.738281"/></g><path fill="#22A0C8" d="M 297.695312 162.832031 C 299.835938 146.175781 287.367188 133.105469 279.636719 126.890625 C 270.730469 137.1875 269.335938 164.175781 283.324219 175.539062 C 275.527344 182.457031 259.085938 188.738281 242.253906 188.738281 L 37.335938 188.738281 C 35.707031 206.304688 38.785156 222.476562 45.828125 236.316406 L 48.160156 240.578125 C 49.632812 243.082031 51.25 245.503906 52.984375 247.824219 C 61.410156 248.371094 69.179688 248.554688 76.285156 248.398438 C 90.25 248.085938 101.648438 246.441406 110.28125 243.445312 C 111.582031 243.042969 112.953125 243.773438 113.355469 245.0625 C 113.75 246.300781 113.097656 247.628906 111.882812 248.085938 C 110.738281 248.488281 109.535156 248.855469 108.296875 249.207031 C 101.503906 251.148438 94.203125 252.449219 84.800781 253.035156 C 85.363281 253.050781 84.214844 253.113281 84.214844 253.113281 C 83.886719 253.140625 83.496094 253.179688 83.171875 253.195312 C 79.46875 253.402344 75.476562 253.441406 71.382812 253.441406 C 66.910156 253.441406 62.515625 253.363281 57.585938 253.101562 L 57.457031 253.179688 C 74.527344 272.363281 101.230469 283.855469 134.691406 283.855469 C 205.507812 283.855469 265.578125 252.476562 292.179688 182.039062 C 311.046875 183.984375 329.1875 179.160156 337.441406 163.066406 C 324.320312 155.519531 307.421875 157.933594 297.695312 162.832031 Z M 297.695312 162.832031"/><path fill="#37B1D9" d="M 297.695312 162.832031 C 299.835938 146.175781 287.367188 133.105469 279.636719 126.890625 C 270.730469 137.1875 269.335938 164.175781 283.324219 175.539062 C 275.527344 182.457031 259.085938 188.738281 242.253906 188.738281 L 49.464844 188.738281 C 48.628906 215.636719 58.617188 236.042969 76.285156 248.398438 C 90.25 248.085938 101.648438 246.441406 110.28125 243.445312 C 111.582031 243.042969 112.953125 243.769531 113.355469 245.0625 C 113.75 246.300781 113.097656 247.628906 111.882812 248.085938 C 110.738281 248.488281 109.535156 248.855469 108.296875 249.207031 C 101.503906 251.148438 93.578125 252.621094 84.175781 253.195312 C 84.175781 253.195312 83.953125 252.972656 83.941406 252.972656 C 108.039062 265.324219 142.996094 265.285156 183.054688 249.894531 C 227.972656 232.640625 269.792969 199.789062 298.960938 162.195312 C 298.542969 162.414062 298.113281 162.625 297.695312 162.832031 Z M 297.695312 162.832031"/><path fill="#1B81A5" d="M 37.714844 210.070312 C 38.992188 219.480469 41.746094 228.289062 45.828125 236.304688 L 48.160156 240.566406 C 49.632812 243.066406 51.25 245.492188 52.984375 247.8125 C 61.410156 248.359375 69.179688 248.542969 76.285156 248.382812 C 90.25 248.070312 101.648438 246.429688 110.28125 243.433594 C 111.582031 243.027344 112.953125 243.757812 113.355469 245.046875 C 113.75 246.285156 113.097656 247.617188 111.882812 248.070312 C 110.738281 248.476562 109.535156 248.839844 108.296875 249.191406 C 101.503906 251.132812 93.617188 252.527344 84.214844 253.101562 C 83.886719 253.128906 83.328125 253.128906 83 253.140625 C 79.296875 253.351562 75.347656 253.480469 71.253906 253.480469 C 66.78125 253.480469 62.214844 253.390625 57.300781 253.140625 C 74.371094 272.324219 101.230469 283.871094 134.703125 283.871094 C 195.335938 283.871094 248.082031 260.867188 278.695312 210.058594 L 37.714844 210.058594 Z M 37.714844 210.070312"/><path fill="#1D91B4" d="M 51.316406 210.070312 C 54.941406 226.597656 63.652344 239.5625 76.300781 248.382812 C 90.265625 248.070312 101.660156 246.429688 110.292969 243.433594 C 111.597656 243.027344 112.964844 243.757812 113.371094 245.046875 C 113.761719 246.285156 113.109375 247.617188 111.898438 248.070312 C 110.75 248.476562 109.550781 248.839844 108.3125 249.191406 C 101.515625 251.132812 93.472656 252.527344 84.058594 253.101562 C 108.15625 265.457031 143.007812 265.273438 183.066406 249.894531 C 207.304688 240.589844 230.632812 226.738281 251.5625 210.046875 L 51.316406 210.046875 Z M 51.316406 210.070312"/><path fill="#23A3C2" d="M 65.152344 156.070312 L 92.859375 156.070312 L 92.859375 183.761719 L 65.152344 183.761719 Z M 67.457031 158.375 L 69.648438 158.375 L 69.648438 181.453125 L 67.457031 181.453125 Z M 71.566406 158.375 L 73.835938 158.375 L 73.835938 181.453125 L 71.566406 181.453125 Z M 75.765625 158.375 L 78.035156 158.375 L 78.035156 181.453125 L 75.765625 181.453125 Z M 79.964844 158.375 L 82.230469 158.375 L 82.230469 181.453125 L 79.964844 181.453125 Z M 84.160156 158.375 L 86.429688 158.375 L 86.429688 181.453125 L 84.160156 181.453125 Z M 88.359375 158.375 L 90.550781 158.375 L 90.550781 181.453125 L 88.359375 181.453125 Z M 97.125 124.113281 L 124.832031 124.113281 L 124.832031 151.808594 L 97.109375 151.808594 Z M 99.429688 126.421875 L 101.621094 126.421875 L 101.621094 149.5 L 99.429688 149.5 Z M 103.539062 126.421875 L 105.808594 126.421875 L 105.808594 149.5 L 103.539062 149.5 Z M 107.738281 126.421875 L 110.007812 126.421875 L 110.007812 149.5 L 107.738281 149.5 Z M 111.9375 126.421875 L 114.203125 126.421875 L 114.203125 149.5 L 111.9375 149.5 Z M 116.132812 126.421875 L 118.402344 126.421875 L 118.402344 149.5 L 116.132812 149.5 Z M 120.332031 126.421875 L 122.523438 126.421875 L 122.523438 149.5 L 120.332031 149.5 Z M 120.332031 126.421875"/><path fill="#34BBDE" d="M 97.125 156.070312 L 124.832031 156.070312 L 124.832031 183.761719 L 97.109375 183.761719 Z M 99.429688 158.375 L 101.621094 158.375 L 101.621094 181.453125 L 99.429688 181.453125 Z M 103.539062 158.375 L 105.808594 158.375 L 105.808594 181.453125 L 103.539062 181.453125 Z M 107.738281 158.375 L 110.007812 158.375 L 110.007812 181.453125 L 107.738281 181.453125 Z M 111.9375 158.375 L 114.203125 158.375 L 114.203125 181.453125 L 111.9375 181.453125 Z M 116.132812 158.375 L 118.402344 158.375 L 118.402344 181.453125 L 116.132812 181.453125 Z M 120.332031 158.375 L 122.523438 158.375 L 122.523438 181.453125 L 120.332031 181.453125 Z M 120.332031 158.375"/><path fill="#23A3C2" d="M 129.097656 156.070312 L 156.804688 156.070312 L 156.804688 183.761719 L 129.097656 183.761719 Z M 131.402344 158.375 L 133.59375 158.375 L 133.59375 181.453125 L 131.402344 181.453125 Z M 135.511719 158.375 L 137.78125 158.375 L 137.78125 181.453125 L 135.511719 181.453125 Z M 139.710938 158.375 L 141.980469 158.375 L 141.980469 181.453125 L 139.710938 181.453125 Z M 143.910156 158.375 L 146.175781 158.375 L 146.175781 181.453125 L 143.910156 181.453125 Z M 148.105469 158.375 L 150.390625 158.375 L 150.390625 181.453125 L 148.105469 181.453125 Z M 152.304688 158.375 L 154.496094 158.375 L 154.496094 181.453125 L 152.304688 181.453125 Z M 152.304688 158.375"/><path fill="#34BBDE" d="M 129.097656 124.113281 L 156.804688 124.113281 L 156.804688 151.808594 L 129.097656 151.808594 Z M 131.402344 126.421875 L 133.59375 126.421875 L 133.59375 149.5 L 131.402344 149.5 Z M 135.511719 126.421875 L 137.78125 126.421875 L 137.78125 149.5 L 135.511719 149.5 Z M 139.710938 126.421875 L 141.980469 126.421875 L 141.980469 149.5 L 139.710938 149.5 Z M 143.910156 126.421875 L 146.175781 126.421875 L 146.175781 149.5 L 143.910156 149.5 Z M 148.105469 126.421875 L 150.390625 126.421875 L 150.390625 149.5 L 148.105469 149.5 Z M 152.304688 126.421875 L 154.496094 126.421875 L 154.496094 149.5 L 152.304688 149.5 Z M 161.070312 156.070312 L 188.777344 156.070312 L 188.777344 183.761719 L 161.070312 183.761719 Z M 163.375 158.375 L 165.566406 158.375 L 165.566406 181.453125 L 163.375 181.453125 Z M 167.484375 158.375 L 169.753906 158.375 L 169.753906 181.453125 L 167.484375 181.453125 Z M 171.683594 158.375 L 173.953125 158.375 L 173.953125 181.453125 L 171.683594 181.453125 Z M 175.882812 158.375 L 178.148438 158.375 L 178.148438 181.453125 L 175.882812 181.453125 Z M 180.078125 158.375 L 182.347656 158.375 L 182.347656 181.453125 L 180.078125 181.453125 Z M 184.277344 158.375 L 186.46875 158.375 L 186.46875 181.453125 L 184.277344 181.453125 Z M 184.277344 158.375"/><path fill="#23A3C2" d="M 161.070312 124.113281 L 188.777344 124.113281 L 188.777344 151.808594 L 161.070312 151.808594 Z M 163.375 126.421875 L 165.566406 126.421875 L 165.566406 149.5 L 163.375 149.5 Z M 167.484375 126.421875 L 169.753906 126.421875 L 169.753906 149.5 L 167.484375 149.5 Z M 171.683594 126.421875 L 173.953125 126.421875 L 173.953125 149.5 L 171.683594 149.5 Z M 175.882812 126.421875 L 178.148438 126.421875 L 178.148438 149.5 L 175.882812 149.5 Z M 180.078125 126.421875 L 182.347656 126.421875 L 182.347656 149.5 L 180.078125 149.5 Z M 184.277344 126.421875 L 186.46875 126.421875 L 186.46875 149.5 L 184.277344 149.5 Z M 184.277344 126.421875"/><path fill="#34BBDE" d="M 161.070312 92.160156 L 188.777344 92.160156 L 188.777344 119.855469 L 161.070312 119.855469 Z M 163.375 94.46875 L 165.566406 94.46875 L 165.566406 117.546875 L 163.375 117.546875 Z M 167.484375 94.46875 L 169.753906 94.46875 L 169.753906 117.546875 L 167.484375 117.546875 Z M 171.683594 94.46875 L 173.953125 94.46875 L 173.953125 117.546875 L 171.683594 117.546875 Z M 175.882812 94.46875 L 178.148438 94.46875 L 178.148438 117.546875 L 175.882812 117.546875 Z M 180.078125 94.46875 L 182.347656 94.46875 L 182.347656 117.546875 L 180.078125 117.546875 Z M 184.277344 94.46875 L 186.46875 94.46875 L 186.46875 117.546875 L 184.277344 117.546875 Z M 184.277344 94.46875"/><path fill="#23A3C2" d="M 193.042969 156.070312 L 220.75 156.070312 L 220.75 183.761719 L 193.042969 183.761719 Z M 195.347656 158.375 L 197.539062 158.375 L 197.539062 181.453125 L 195.347656 181.453125 Z M 199.457031 158.375 L 201.726562 158.375 L 201.726562 181.453125 L 199.457031 181.453125 Z M 203.65625 158.375 L 205.925781 158.375 L 205.925781 181.453125 L 203.65625 181.453125 Z M 207.855469 158.375 L 210.121094 158.375 L 210.121094 181.453125 L 207.855469 181.453125 Z M 212.050781 158.375 L 214.320312 158.375 L 214.320312 181.453125 L 212.050781 181.453125 Z M 216.25 158.375 L 218.441406 158.375 L 218.441406 181.453125 L 216.25 181.453125 Z M 216.25 158.375"/><path fill="#D3ECEC" d="M 123.097656 228.667969 C 127.324219 228.617188 130.792969 231.992188 130.84375 236.214844 C 130.894531 240.433594 127.519531 243.902344 123.292969 243.953125 C 123.226562 243.953125 123.148438 243.953125 123.085938 243.953125 C 118.859375 243.902344 115.484375 240.433594 115.546875 236.214844 C 115.613281 232.054688 118.953125 228.71875 123.097656 228.667969 Z M 123.097656 228.667969"/><path fill="#364548" d="M 123.097656 230.832031 C 123.800781 230.832031 124.46875 230.960938 125.078125 231.195312 C 124.011719 231.820312 123.644531 233.175781 124.269531 234.246094 C 124.675781 234.9375 125.40625 235.351562 126.199219 235.351562 C 127.046875 235.351562 127.777344 234.882812 128.15625 234.191406 C 129.316406 236.980469 127.988281 240.1875 125.195312 241.347656 C 122.40625 242.507812 119.199219 241.179688 118.039062 238.390625 C 116.878906 235.601562 118.207031 232.394531 121 231.234375 C 121.664062 230.972656 122.378906 230.832031 123.097656 230.832031 Z M 123.097656 230.832031"/><path fill="#BDD9D7" d="M 143.414062 283.714844 C 124.480469 274.734375 114.085938 262.523438 108.3125 249.207031 C 101.28125 251.210938 92.820312 252.488281 83 253.050781 C 79.296875 253.257812 75.414062 253.363281 71.332031 253.363281 C 66.625 253.363281 61.65625 253.21875 56.453125 252.945312 C 73.820312 270.289062 95.179688 283.636719 134.730469 283.882812 C 137.636719 283.882812 140.53125 283.832031 143.414062 283.714844 Z M 143.414062 283.714844"/><path fill="#D3ECEC" d="M 115.339844 261.507812 C 112.71875 257.949219 110.175781 253.492188 108.3125 249.207031 C 101.28125 251.210938 92.820312 252.503906 83 253.050781 C 89.757812 256.710938 99.40625 260.101562 115.339844 261.507812 Z M 115.339844 261.507812"/></svg>