<svg xmlns="http://www.w3.org/2000/svg" xmlns:xlink="http://www.w3.org/1999/xlink" width="375" viewBox="0 0 375 375" height="375" version="1.0"><defs><clipPath id="a"><path d="M 25.074219 101.316406 L 349.824219 101.316406 L 349.824219 273.816406 L 25.074219 273.816406 Z M 25.074219 101.316406"/></clipPath><clipPath id="b"><path d="M 81.957031 163.40625 L 123.207031 163.40625 L 123.207031 204.65625 L 81.957031 204.65625 Z M 81.957031 163.40625"/></clipPath><clipPath id="c"><path d="M 254.863281 175.578125 L 301.222656 175.578125 L 301.222656 199.578125 L 254.863281 199.578125 Z M 254.863281 175.578125"/></clipPath><clipPath id="d"><path d="M 254.910156 187.59375 C 254.910156 194.222656 265.265625 199.597656 278.042969 199.597656 C 290.820312 199.597656 301.179688 194.222656 301.179688 187.59375 C 301.179688 180.964844 290.820312 175.59375 278.042969 175.59375 C 265.265625 175.59375 254.910156 180.964844 254.910156 187.59375"/></clipPath><clipPath id="e"><path d="M 254.910156 187.59375 C 254.910156 194.222656 265.265625 199.597656 278.042969 199.597656 C 290.820312 199.597656 301.179688 194.222656 301.179688 187.59375 C 301.179688 180.964844 290.820312 175.59375 278.042969 175.59375 C 265.265625 175.59375 254.910156 180.964844 254.910156 187.59375"/></clipPath><clipPath id="g"><path d="M 163 192 L 170 192 L 170 199 L 163 199 Z M 163 192"/></clipPath><clipPath id="h"><path d="M 170.496094 177.773438 L 169.808594 198.761719 L 127.832031 197.382812 L 128.519531 176.394531 Z M 170.496094 177.773438"/></clipPath><clipPath id="i"><path d="M 170.496094 177.773438 L 169.808594 198.761719 L 127.832031 197.382812 L 128.519531 176.394531 Z M 170.496094 177.773438"/></clipPath><clipPath id="j"><path d="M 170.496094 177.773438 L 169.808594 198.761719 L 127.832031 197.382812 L 128.519531 176.394531 Z M 170.496094 177.773438"/></clipPath><clipPath id="k"><path d="M 169.097656 195.367188 C 168.742188 194.710938 167.6875 193.589844 166.160156 192.25 L 166.0625 192.246094 L 163.9375 193.308594 L 163.898438 193.363281 C 165.054688 194.234375 166.097656 195.109375 166.980469 195.992188 C 167.050781 196.058594 167.082031 196.09375 167.082031 196.09375 C 167.050781 196.058594 167.011719 196.027344 166.980469 195.992188 C 166.683594 195.707031 165.746094 194.835938 163.851562 193.515625 L 163.816406 193.660156 C 163.816406 193.660156 164.007812 196.613281 164.203125 198.042969 L 164.273438 198.125 C 166.789062 198.660156 167.976562 197.804688 167.976562 197.804688 C 167.976562 197.804688 169.835938 196.734375 169.097656 195.367188 Z M 169.097656 195.367188"/></clipPath><clipPath id="m"><path d="M 156 187 L 167 187 L 167 194 L 156 194 Z M 156 187"/></clipPath><clipPath id="n"><path d="M 170.496094 177.773438 L 169.808594 198.761719 L 127.832031 197.382812 L 128.519531 176.394531 Z M 170.496094 177.773438"/></clipPath><clipPath id="o"><path d="M 170.496094 177.773438 L 169.808594 198.761719 L 127.832031 197.382812 L 128.519531 176.394531 Z M 170.496094 177.773438"/></clipPath><clipPath id="p"><path d="M 170.496094 177.773438 L 169.808594 198.761719 L 127.832031 197.382812 L 128.519531 176.394531 Z M 170.496094 177.773438"/></clipPath><clipPath id="q"><path d="M 158.25 189.683594 C 158.90625 190.070312 159.554688 190.457031 160.179688 190.839844 C 160.828125 191.242188 161.460938 191.648438 162.066406 192.066406 C 162.097656 192.089844 162.140625 192.117188 162.179688 192.132812 C 162.777344 192.542969 163.347656 192.949219 163.898438 193.363281 L 166.167969 192.25 C 166.066406 192.15625 165.957031 192.0625 165.847656 191.972656 C 165.429688 191.617188 164.992188 191.25 164.519531 190.871094 C 163.984375 190.441406 163.417969 190 162.820312 189.554688 C 162.269531 189.140625 161.6875 188.714844 161.09375 188.300781 C 160.582031 187.945312 160.0625 187.578125 159.515625 187.222656 C 159.492188 187.207031 159.476562 187.195312 159.453125 187.179688 L 159.363281 187.175781 L 156.390625 188.558594 L 156.363281 188.621094 C 157 188.972656 157.632812 189.324219 158.25 189.683594 Z M 158.25 189.683594"/></clipPath><clipPath id="s"><path d="M 142 180 L 160 180 L 160 189 L 142 189 Z M 142 180"/></clipPath><clipPath id="t"><path d="M 170.496094 177.773438 L 169.808594 198.761719 L 127.832031 197.382812 L 128.519531 176.394531 Z M 170.496094 177.773438"/></clipPath><clipPath id="u"><path d="M 170.496094 177.773438 L 169.808594 198.761719 L 127.832031 197.382812 L 128.519531 176.394531 Z M 170.496094 177.773438"/></clipPath><clipPath id="v"><path d="M 170.496094 177.773438 L 169.808594 198.761719 L 127.832031 197.382812 L 128.519531 176.394531 Z M 170.496094 177.773438"/></clipPath><clipPath id="w"><path d="M 144.140625 182.78125 C 144.824219 183.070312 145.515625 183.375 146.214844 183.683594 C 146.882812 183.980469 147.5625 184.277344 148.234375 184.589844 C 148.910156 184.894531 149.585938 185.214844 150.269531 185.535156 C 150.960938 185.867188 151.652344 186.195312 152.335938 186.535156 C 153.007812 186.871094 153.683594 187.207031 154.351562 187.554688 C 154.589844 187.675781 154.835938 187.804688 155.070312 187.933594 C 155.484375 188.148438 155.898438 188.371094 156.300781 188.585938 C 156.324219 188.597656 156.339844 188.613281 156.363281 188.621094 L 159.453125 187.179688 C 159.414062 187.15625 159.375 187.128906 159.335938 187.101562 C 158.757812 186.730469 158.171875 186.347656 157.574219 185.976562 C 156.964844 185.601562 156.347656 185.234375 155.722656 184.875 C 155.191406 184.566406 154.660156 184.273438 154.121094 183.980469 C 154.011719 183.921875 153.90625 183.871094 153.796875 183.808594 C 153.113281 183.449219 152.460938 183.128906 151.828125 182.832031 C 151.113281 182.5 150.429688 182.203125 149.773438 181.941406 C 149.34375 181.765625 148.9375 181.613281 148.539062 181.464844 C 148.207031 181.347656 147.863281 181.230469 147.527344 181.125 C 146.730469 180.863281 145.9375 180.644531 145.136719 180.453125 L 145.039062 180.476562 L 142.058594 181.855469 L 142.03125 181.90625 C 142.574219 182.125 143.113281 182.351562 143.671875 182.589844 C 143.832031 182.652344 143.980469 182.71875 144.140625 182.78125 Z M 144.140625 182.78125"/></clipPath><clipPath id="y"><path d="M 128 176 L 146 176 L 146 182 L 128 182 Z M 128 176"/></clipPath><clipPath id="z"><path d="M 170.496094 177.773438 L 169.808594 198.761719 L 127.832031 197.382812 L 128.519531 176.394531 Z M 170.496094 177.773438"/></clipPath><clipPath id="A"><path d="M 170.496094 177.773438 L 169.808594 198.761719 L 127.832031 197.382812 L 128.519531 176.394531 Z M 170.496094 177.773438"/></clipPath><clipPath id="B"><path d="M 170.496094 177.773438 L 169.808594 198.761719 L 127.832031 197.382812 L 128.519531 176.394531 Z M 170.496094 177.773438"/></clipPath><clipPath id="C"><path d="M 145.03125 180.433594 C 144.0625 180.210938 143.09375 180.039062 142.128906 179.9375 C 142.097656 179.933594 142.066406 179.925781 142.023438 179.925781 C 142.8125 179.464844 143.605469 178.199219 143.605469 178.199219 C 142.238281 179.082031 140.886719 179.742188 139.574219 179.804688 C 139.488281 179.308594 139.664062 178.632812 139.96875 177.851562 C 139.195312 178.644531 138.964844 179.25 138.898438 179.492188 C 138.875 178.738281 138.386719 177.9375 137.824219 177.128906 C 138.253906 178.296875 138.410156 179.230469 138.242188 179.898438 C 135.285156 178.742188 132.015625 177.574219 128.554688 176.394531 C 128.640625 176.722656 128.851562 176.921875 129.148438 177.042969 C 129.777344 177.25 133.894531 178.648438 139.300781 180.789062 C 139.453125 180.851562 139.613281 180.910156 139.761719 180.972656 C 139.804688 180.992188 139.851562 181.007812 139.890625 181.027344 C 140.457031 181.253906 141.039062 181.484375 141.625 181.730469 C 141.761719 181.78125 141.894531 181.84375 142.03125 181.894531 L 142.039062 181.898438 L 145.136719 180.453125 C 145.097656 180.453125 145.0625 180.445312 145.03125 180.433594 Z M 145.03125 180.433594"/></clipPath><clipPath id="E"><path d="M 156 188 L 165 188 L 165 199 L 156 199 Z M 156 188"/></clipPath><clipPath id="F"><path d="M 170.496094 177.773438 L 169.808594 198.761719 L 127.832031 197.382812 L 128.519531 176.394531 Z M 170.496094 177.773438"/></clipPath><clipPath id="G"><path d="M 170.496094 177.773438 L 169.808594 198.761719 L 127.832031 197.382812 L 128.519531 176.394531 Z M 170.496094 177.773438"/></clipPath><clipPath id="H"><path d="M 170.496094 177.773438 L 169.808594 198.761719 L 127.832031 197.382812 L 128.519531 176.394531 Z M 170.496094 177.773438"/></clipPath><clipPath id="I"><path d="M 163.84375 193.515625 C 163.324219 193.148438 162.730469 192.75 162.058594 192.316406 C 162.027344 192.292969 161.988281 192.273438 161.957031 192.25 C 161.371094 191.871094 160.738281 191.480469 160.035156 191.0625 C 159.433594 190.703125 158.785156 190.324219 158.078125 189.929688 C 157.46875 189.585938 156.828125 189.234375 156.136719 188.871094 L 156.105469 188.945312 L 156.382812 192.710938 L 156.445312 192.800781 C 156.929688 193.957031 157.390625 194.480469 158.058594 194.996094 C 158.242188 195.132812 158.4375 195.277344 158.632812 195.410156 C 159.25 195.835938 159.921875 196.253906 160.59375 196.625 C 161.246094 196.984375 161.894531 197.304688 162.476562 197.558594 C 162.851562 197.714844 163.191406 197.847656 163.496094 197.9375 C 163.769531 198.019531 164.023438 198.085938 164.265625 198.132812 C 164.046875 196.609375 163.859375 194.734375 163.84375 193.515625 Z M 163.84375 193.515625"/></clipPath><clipPath id="K"><path d="M 141 182 L 158 182 L 158 195 L 141 195 Z M 141 182"/></clipPath><clipPath id="L"><path d="M 170.496094 177.773438 L 169.808594 198.761719 L 127.832031 197.382812 L 128.519531 176.394531 Z M 170.496094 177.773438"/></clipPath><clipPath id="M"><path d="M 170.496094 177.773438 L 169.808594 198.761719 L 127.832031 197.382812 L 128.519531 176.394531 Z M 170.496094 177.773438"/></clipPath><clipPath id="N"><path d="M 170.496094 177.773438 L 169.808594 198.761719 L 127.832031 197.382812 L 128.519531 176.394531 Z M 170.496094 177.773438"/></clipPath><clipPath id="O"><path d="M 155.828125 188.71875 C 155.558594 188.578125 155.28125 188.433594 155.003906 188.285156 C 154.703125 188.128906 154.386719 187.964844 154.066406 187.8125 C 153.910156 187.734375 153.742188 187.648438 153.582031 187.570312 C 153.09375 187.316406 152.582031 187.074219 152.058594 186.816406 C 151.417969 186.503906 150.742188 186.183594 150.050781 185.859375 C 149.382812 185.546875 148.699219 185.234375 147.984375 184.921875 C 147.308594 184.613281 146.605469 184.308594 145.890625 184.003906 C 145.246094 183.722656 144.59375 183.441406 143.910156 183.164062 C 143.878906 183.144531 143.847656 183.136719 143.816406 183.117188 C 143.136719 182.835938 142.449219 182.5625 141.742188 182.273438 C 141.726562 182.265625 141.683594 182.25 141.667969 182.238281 L 141.65625 182.296875 L 141.738281 183.421875 L 141.761719 183.484375 C 141.769531 183.460938 141.804688 183.449219 141.8125 183.425781 C 141.949219 184.914062 142.996094 186.929688 144.324219 188.257812 C 144.933594 188.867188 145.664062 189.425781 146.519531 189.953125 C 147.160156 190.347656 147.867188 190.710938 148.652344 191.066406 C 149.335938 191.382812 150.085938 191.679688 150.890625 191.972656 C 150.722656 191.628906 150.597656 191.230469 150.523438 190.796875 C 150.511719 190.722656 150.496094 190.644531 150.484375 190.5625 C 150.472656 190.480469 150.464844 190.398438 150.453125 190.328125 C 150.9375 191.730469 151.941406 192.636719 153.175781 193.316406 C 152.9375 192.945312 152.636719 192.335938 152.5 191.621094 C 152.476562 191.523438 152.464844 191.425781 152.453125 191.320312 C 152.453125 191.296875 152.445312 191.273438 152.445312 191.25 C 152.632812 191.738281 152.84375 192.152344 153.097656 192.515625 C 153.152344 192.589844 153.207031 192.664062 153.269531 192.738281 C 153.363281 192.847656 153.457031 192.953125 153.546875 193.054688 C 153.609375 193.121094 153.671875 193.179688 153.746094 193.246094 C 153.902344 193.390625 154.074219 193.523438 154.261719 193.652344 C 154.320312 193.695312 154.382812 193.726562 154.4375 193.769531 C 154.523438 193.820312 154.609375 193.867188 154.699219 193.910156 C 155.078125 194.117188 155.421875 194.28125 155.722656 194.410156 C 155.875 194.480469 156.007812 194.535156 156.144531 194.585938 C 156.191406 194.605469 156.246094 194.621094 156.296875 194.648438 C 156.4375 194.699219 156.566406 194.746094 156.6875 194.78125 C 156.855469 194.835938 156.992188 194.863281 157.085938 194.882812 C 157.046875 194.832031 157.015625 194.785156 156.980469 194.71875 C 156.742188 194.289062 156.539062 193.566406 156.453125 192.980469 L 156.546875 194.132812 L 156.453125 192.980469 C 156.441406 192.898438 156.4375 192.84375 156.421875 192.777344 C 156.425781 192.78125 156.332031 191.484375 156.140625 188.878906 C 156.125 188.863281 155.925781 188.761719 155.828125 188.71875 Z M 155.828125 188.71875"/></clipPath><clipPath id="Q"><path d="M 136 180 L 144 180 L 144 189 L 136 189 Z M 136 180"/></clipPath><clipPath id="R"><path d="M 170.496094 177.773438 L 169.808594 198.761719 L 127.832031 197.382812 L 128.519531 176.394531 Z M 170.496094 177.773438"/></clipPath><clipPath id="S"><path d="M 170.496094 177.773438 L 169.808594 198.761719 L 127.832031 197.382812 L 128.519531 176.394531 Z M 170.496094 177.773438"/></clipPath><clipPath id="T"><path d="M 170.496094 177.773438 L 169.808594 198.761719 L 127.832031 197.382812 L 128.519531 176.394531 Z M 170.496094 177.773438"/></clipPath><clipPath id="U"><path d="M 141.371094 182.109375 C 140.824219 181.890625 140.257812 181.660156 139.683594 181.4375 C 139.675781 181.4375 139.667969 181.429688 139.660156 181.429688 C 139.578125 181.394531 139.5 181.367188 139.414062 181.332031 C 139.023438 181.183594 138.679688 181.050781 137.882812 180.75 C 137.660156 181.195312 137.105469 181.539062 136.476562 181.867188 C 137.113281 181.855469 137.726562 181.609375 138.199219 181.117188 C 138.03125 183.347656 138.53125 185.296875 140.128906 186.34375 C 140.269531 186.4375 140.421875 186.523438 140.578125 186.601562 C 140.019531 186.128906 139.796875 185.554688 139.890625 184.507812 L 139.890625 184.5 L 139.890625 184.507812 C 140.53125 186.089844 141.175781 186.886719 142.253906 187.617188 C 142.515625 187.785156 142.792969 187.957031 143.101562 188.128906 C 141.753906 186.71875 141.410156 185.132812 141.761719 183.488281 L 141.667969 182.238281 C 141.578125 182.195312 141.472656 182.152344 141.371094 182.109375 Z M 141.371094 182.109375"/></clipPath><clipPath id="W"><path d="M 187.5 190 L 210 190 L 210 201.507812 L 187.5 201.507812 Z M 187.5 190"/></clipPath><linearGradient x1="-.108" gradientTransform="matrix(-.19909 6.06102 -5.52972 -.18163 169.393 192.355)" xmlns:xlink="http://www.w3.org/1999/xlink" y1=".722" x2="1.204" gradientUnits="userSpaceOnUse" y2=".323" xlink:type="simple" xlink:actuate="onLoad" id="l" xlink:show="other"><stop stop-color="#F69923" offset="0"/><stop stop-color="#F79923" offset=".239"/><stop stop-color="#F79A23" offset=".5"/><stop stop-color="#F79A23" offset=".563"/><stop stop-color="#F79923" offset=".578"/><stop stop-color="#F69823" offset=".594"/><stop stop-color="#F69723" offset=".609"/><stop stop-color="#F59623" offset=".625"/><stop stop-color="#F59523" offset=".641"/><stop stop-color="#F59423" offset=".656"/><stop stop-color="#F49324" offset=".672"/><stop stop-color="#F49224" offset=".688"/><stop stop-color="#F49124" offset=".703"/><stop stop-color="#F39024" offset=".719"/><stop stop-color="#F39024" offset=".734"/><stop stop-color="#F28F24" offset=".75"/><stop stop-color="#F28E24" offset=".761"/><stop stop-color="#F28D24" offset=".766"/><stop stop-color="#F28D24" offset=".781"/><stop stop-color="#F18C24" offset=".797"/><stop stop-color="#F18B24" offset=".813"/><stop stop-color="#F08A24" offset=".828"/><stop stop-color="#F08924" offset=".844"/><stop stop-color="#F08825" offset=".859"/><stop stop-color="#EF8725" offset=".875"/><stop stop-color="#EF8625" offset=".891"/><stop stop-color="#EF8525" offset=".906"/><stop stop-color="#EE8525" offset=".922"/><stop stop-color="#EE8425" offset=".938"/><stop stop-color="#ED8325" offset=".953"/><stop stop-color="#ED8225" offset=".969"/><stop stop-color="#ED8125" offset=".984"/><stop stop-color="#EC8025" offset="1"/></linearGradient><linearGradient x1=".038" gradientTransform="matrix(-.19807 6.03 -9.9118 -.32557 166.327 187.406)" xmlns:xlink="http://www.w3.org/1999/xlink" y1="1.062" x2=".925" gradientUnits="userSpaceOnUse" y2="-.093" xlink:type="simple" xlink:actuate="onLoad" id="r" xlink:show="other"><stop stop-color="#CE2535" offset="0"/><stop stop-color="#CE2535" offset=".008"/><stop stop-color="#CE2634" offset=".016"/><stop stop-color="#CE2734" offset=".023"/><stop stop-color="#CF2834" offset=".031"/><stop stop-color="#CF2934" offset=".039"/><stop stop-color="#CF2934" offset=".047"/><stop stop-color="#CF2A34" offset=".055"/><stop stop-color="#D02B34" offset=".063"/><stop stop-color="#D02C33" offset=".07"/><stop stop-color="#D02D33" offset=".078"/><stop stop-color="#D02E33" offset=".086"/><stop stop-color="#D12E33" offset=".094"/><stop stop-color="#D12F33" offset=".102"/><stop stop-color="#D13033" offset=".109"/><stop stop-color="#D23133" offset=".117"/><stop stop-color="#D23232" offset=".125"/><stop stop-color="#D23232" offset=".133"/><stop stop-color="#D23332" offset=".141"/><stop stop-color="#D33432" offset=".148"/><stop stop-color="#D33532" offset=".156"/><stop stop-color="#D33632" offset=".164"/><stop stop-color="#D33632" offset=".172"/><stop stop-color="#D43731" offset=".18"/><stop stop-color="#D43831" offset=".188"/><stop stop-color="#D43931" offset=".195"/><stop stop-color="#D53A31" offset=".203"/><stop stop-color="#D53A31" offset=".211"/><stop stop-color="#D53B31" offset=".219"/><stop stop-color="#D53C31" offset=".227"/><stop stop-color="#D63D30" offset=".234"/><stop stop-color="#D63E30" offset=".242"/><stop stop-color="#D63F30" offset=".25"/><stop stop-color="#D63F30" offset=".258"/><stop stop-color="#D74030" offset=".266"/><stop stop-color="#D74130" offset=".273"/><stop stop-color="#D74230" offset=".281"/><stop stop-color="#D7432F" offset=".289"/><stop stop-color="#D8432F" offset=".297"/><stop stop-color="#D8442F" offset=".305"/><stop stop-color="#D8452F" offset=".313"/><stop stop-color="#D9462F" offset=".32"/><stop stop-color="#D9472F" offset=".328"/><stop stop-color="#D9472F" offset=".336"/><stop stop-color="#D9482E" offset=".344"/><stop stop-color="#DA492E" offset=".352"/><stop stop-color="#DA4A2E" offset=".359"/><stop stop-color="#DA4B2E" offset=".367"/><stop stop-color="#DA4C2E" offset=".375"/><stop stop-color="#DB4C2E" offset=".383"/><stop stop-color="#DB4D2E" offset=".391"/><stop stop-color="#DB4E2D" offset=".398"/><stop stop-color="#DB4F2D" offset=".406"/><stop stop-color="#DC502D" offset=".414"/><stop stop-color="#DC502D" offset=".422"/><stop stop-color="#DC512D" offset=".43"/><stop stop-color="#DD522D" offset=".438"/><stop stop-color="#DD532D" offset=".445"/><stop stop-color="#DD542C" offset=".451"/><stop stop-color="#DD542C" offset=".453"/><stop stop-color="#DD542C" offset=".461"/><stop stop-color="#DE552C" offset=".469"/><stop stop-color="#DE562C" offset=".477"/><stop stop-color="#DE572C" offset=".484"/><stop stop-color="#DE582C" offset=".492"/><stop stop-color="#DF592C" offset=".5"/><stop stop-color="#DF592B" offset=".508"/><stop stop-color="#DF5A2B" offset=".516"/><stop stop-color="#DF5B2B" offset=".523"/><stop stop-color="#E05C2B" offset=".531"/><stop stop-color="#E05D2B" offset=".539"/><stop stop-color="#E05D2B" offset=".547"/><stop stop-color="#E15E2B" offset=".549"/><stop stop-color="#E15F2A" offset=".555"/><stop stop-color="#E15F2A" offset=".563"/><stop stop-color="#E1602A" offset=".57"/><stop stop-color="#E1612A" offset=".578"/><stop stop-color="#E2612A" offset=".586"/><stop stop-color="#E2622A" offset=".594"/><stop stop-color="#E2632A" offset=".602"/><stop stop-color="#E2642A" offset=".609"/><stop stop-color="#E36529" offset=".617"/><stop stop-color="#E36629" offset=".625"/><stop stop-color="#E36629" offset=".633"/><stop stop-color="#E36729" offset=".641"/><stop stop-color="#E46829" offset=".648"/><stop stop-color="#E46929" offset=".656"/><stop stop-color="#E46A29" offset=".664"/><stop stop-color="#E56A28" offset=".672"/><stop stop-color="#E56B28" offset=".68"/><stop stop-color="#E56C28" offset=".688"/><stop stop-color="#E56D28" offset=".695"/><stop stop-color="#E66E28" offset=".703"/><stop stop-color="#E66E28" offset=".711"/><stop stop-color="#E66F28" offset=".719"/><stop stop-color="#E67027" offset=".727"/><stop stop-color="#E77127" offset=".734"/><stop stop-color="#E77227" offset=".742"/><stop stop-color="#E77327" offset=".75"/><stop stop-color="#E77327" offset=".758"/><stop stop-color="#E87427" offset=".766"/><stop stop-color="#E87527" offset=".773"/><stop stop-color="#E87626" offset=".781"/><stop stop-color="#E97726" offset=".789"/><stop stop-color="#E97726" offset=".797"/><stop stop-color="#E97826" offset=".813"/><stop stop-color="#E97826" offset=".875"/><stop stop-color="#E97826" offset="1"/></linearGradient><linearGradient x1="-.061" gradientTransform="matrix(-.25586 7.78948 -17.5757 -.5773 159.658 180.932)" xmlns:xlink="http://www.w3.org/1999/xlink" y1="1.002" x2="1.031" gradientUnits="userSpaceOnUse" y2="-.034" xlink:type="simple" xlink:actuate="onLoad" id="x" xlink:show="other"><stop stop-color="#9F2063" offset="0"/><stop stop-color="#9F2063" offset=".008"/><stop stop-color="#9F2063" offset=".016"/><stop stop-color="#A02062" offset=".023"/><stop stop-color="#A02062" offset=".031"/><stop stop-color="#A12061" offset=".039"/><stop stop-color="#A12060" offset=".047"/><stop stop-color="#A22060" offset=".055"/><stop stop-color="#A3205F" offset=".063"/><stop stop-color="#A3205F" offset=".07"/><stop stop-color="#A4205E" offset=".078"/><stop stop-color="#A4205E" offset=".086"/><stop stop-color="#A5205D" offset=".094"/><stop stop-color="#A5205D" offset=".102"/><stop stop-color="#A6205C" offset=".109"/><stop stop-color="#A6205B" offset=".117"/><stop stop-color="#A7205B" offset=".125"/><stop stop-color="#A7205A" offset=".133"/><stop stop-color="#A8205A" offset=".141"/><stop stop-color="#A82059" offset=".148"/><stop stop-color="#A92059" offset=".156"/><stop stop-color="#A92058" offset=".164"/><stop stop-color="#AA2058" offset=".172"/><stop stop-color="#AA2057" offset=".18"/><stop stop-color="#AB2056" offset=".188"/><stop stop-color="#AB2056" offset=".195"/><stop stop-color="#AC2055" offset=".203"/><stop stop-color="#AD2055" offset=".211"/><stop stop-color="#AD2054" offset=".219"/><stop stop-color="#AE2054" offset=".227"/><stop stop-color="#AE2053" offset=".234"/><stop stop-color="#AF2053" offset=".242"/><stop stop-color="#AF2052" offset=".25"/><stop stop-color="#B02052" offset=".258"/><stop stop-color="#B02051" offset=".266"/><stop stop-color="#B12050" offset=".273"/><stop stop-color="#B12050" offset=".281"/><stop stop-color="#B2204F" offset=".289"/><stop stop-color="#B2204F" offset=".297"/><stop stop-color="#B3204E" offset=".305"/><stop stop-color="#B3204E" offset=".313"/><stop stop-color="#B4204D" offset=".32"/><stop stop-color="#B4204D" offset=".328"/><stop stop-color="#B5204C" offset=".336"/><stop stop-color="#B5204B" offset=".344"/><stop stop-color="#B6204B" offset=".352"/><stop stop-color="#B7204A" offset=".359"/><stop stop-color="#B7204A" offset=".367"/><stop stop-color="#B82049" offset=".375"/><stop stop-color="#B82049" offset=".383"/><stop stop-color="#B92048" offset=".391"/><stop stop-color="#B92048" offset=".398"/><stop stop-color="#BA2047" offset=".406"/><stop stop-color="#BA2046" offset=".414"/><stop stop-color="#BB2046" offset=".422"/><stop stop-color="#BB2045" offset=".43"/><stop stop-color="#BC2045" offset=".438"/><stop stop-color="#BC2044" offset=".445"/><stop stop-color="#BD2044" offset=".453"/><stop stop-color="#BD2043" offset=".46"/><stop stop-color="#BE2043" offset=".461"/><stop stop-color="#BE2043" offset=".469"/><stop stop-color="#BE2042" offset=".477"/><stop stop-color="#BF2042" offset=".484"/><stop stop-color="#BF2041" offset=".492"/><stop stop-color="#C02040" offset=".5"/><stop stop-color="#C12040" offset=".508"/><stop stop-color="#C1203F" offset=".516"/><stop stop-color="#C2203F" offset=".523"/><stop stop-color="#C2203E" offset=".531"/><stop stop-color="#C3203E" offset=".539"/><stop stop-color="#C3203D" offset=".54"/><stop stop-color="#C3203D" offset=".547"/><stop stop-color="#C4203D" offset=".555"/><stop stop-color="#C4203C" offset=".563"/><stop stop-color="#C5203B" offset=".57"/><stop stop-color="#C5203B" offset=".578"/><stop stop-color="#C6203A" offset=".586"/><stop stop-color="#C6203A" offset=".594"/><stop stop-color="#C72039" offset=".602"/><stop stop-color="#C72039" offset=".609"/><stop stop-color="#C82038" offset=".617"/><stop stop-color="#C82038" offset=".625"/><stop stop-color="#C92037" offset=".656"/><stop stop-color="#CA2037" offset=".688"/><stop stop-color="#CA2136" offset=".719"/><stop stop-color="#CB2136" offset=".75"/><stop stop-color="#CB2236" offset=".781"/><stop stop-color="#CC2236" offset=".813"/><stop stop-color="#CC2235" offset=".844"/><stop stop-color="#CD2335" offset=".875"/><stop stop-color="#CD2335" offset=".883"/><stop stop-color="#CD2435" offset=".887"/><stop stop-color="#CE2535" offset=".891"/><stop stop-color="#CE2535" offset=".895"/><stop stop-color="#CE2634" offset=".898"/><stop stop-color="#CE2734" offset=".902"/><stop stop-color="#CE2734" offset=".906"/><stop stop-color="#CF2834" offset=".91"/><stop stop-color="#CF2934" offset=".914"/><stop stop-color="#CF2934" offset=".918"/><stop stop-color="#CF2A34" offset=".922"/><stop stop-color="#D02B34" offset=".926"/><stop stop-color="#D02B34" offset=".93"/><stop stop-color="#D02C33" offset=".934"/><stop stop-color="#D02C33" offset=".938"/><stop stop-color="#D02D33" offset=".941"/><stop stop-color="#D12E33" offset=".945"/><stop stop-color="#D12E33" offset=".949"/><stop stop-color="#D12F33" offset=".953"/><stop stop-color="#D13033" offset=".957"/><stop stop-color="#D13033" offset=".961"/><stop stop-color="#D23133" offset=".965"/><stop stop-color="#D23232" offset=".969"/><stop stop-color="#D23232" offset=".973"/><stop stop-color="#D23332" offset=".977"/><stop stop-color="#D23432" offset=".98"/><stop stop-color="#D33432" offset=".984"/><stop stop-color="#D33532" offset=".988"/><stop stop-color="#D33532" offset=".992"/><stop stop-color="#D33632" offset=".996"/><stop stop-color="#D43732" offset="1"/></linearGradient><linearGradient x1="-.233" gradientTransform="matrix(-.16598 5.0532 -16.69712 -.54845 145.252 176.944)" xmlns:xlink="http://www.w3.org/1999/xlink" y1=".806" x2="1.066" gradientUnits="userSpaceOnUse" y2="-.036" xlink:type="simple" xlink:actuate="onLoad" id="D" xlink:show="other"><stop stop-color="#282662" offset="0"/><stop stop-color="#282662" offset=".031"/><stop stop-color="#282662" offset=".039"/><stop stop-color="#2A2663" offset=".043"/><stop stop-color="#2C2665" offset=".047"/><stop stop-color="#2E2766" offset=".051"/><stop stop-color="#2F2767" offset=".055"/><stop stop-color="#312768" offset=".059"/><stop stop-color="#33276A" offset=".063"/><stop stop-color="#35286B" offset=".066"/><stop stop-color="#37286C" offset=".07"/><stop stop-color="#38286D" offset=".074"/><stop stop-color="#3A286F" offset=".078"/><stop stop-color="#3C2970" offset=".082"/><stop stop-color="#3E2971" offset=".086"/><stop stop-color="#402972" offset=".09"/><stop stop-color="#412974" offset=".094"/><stop stop-color="#432975" offset=".098"/><stop stop-color="#452A76" offset=".102"/><stop stop-color="#472A77" offset=".105"/><stop stop-color="#492A79" offset=".109"/><stop stop-color="#4A2A7A" offset=".113"/><stop stop-color="#4C2B7B" offset=".117"/><stop stop-color="#4E2B7C" offset=".121"/><stop stop-color="#502B7E" offset=".125"/><stop stop-color="#522B7F" offset=".129"/><stop stop-color="#532C80" offset=".133"/><stop stop-color="#552C81" offset=".137"/><stop stop-color="#572C83" offset=".141"/><stop stop-color="#592C84" offset=".145"/><stop stop-color="#5B2C85" offset=".148"/><stop stop-color="#5C2D86" offset=".152"/><stop stop-color="#5E2D88" offset=".156"/><stop stop-color="#602D89" offset=".16"/><stop stop-color="#622D8A" offset=".164"/><stop stop-color="#642E8B" offset=".168"/><stop stop-color="#652E8D" offset=".172"/><stop stop-color="#662E8D" offset=".176"/><stop stop-color="#662E8D" offset=".18"/><stop stop-color="#672E8D" offset=".188"/><stop stop-color="#672E8C" offset=".203"/><stop stop-color="#682D8B" offset=".219"/><stop stop-color="#692D8B" offset=".234"/><stop stop-color="#6A2D8A" offset=".25"/><stop stop-color="#6B2D89" offset=".266"/><stop stop-color="#6C2C89" offset=".281"/><stop stop-color="#6D2C88" offset=".297"/><stop stop-color="#6E2C87" offset=".313"/><stop stop-color="#6F2C87" offset=".328"/><stop stop-color="#702C86" offset=".344"/><stop stop-color="#702B86" offset=".352"/><stop stop-color="#712B85" offset=".359"/><stop stop-color="#712B85" offset=".375"/><stop stop-color="#722B84" offset=".391"/><stop stop-color="#732B84" offset=".406"/><stop stop-color="#742A83" offset=".422"/><stop stop-color="#752A82" offset=".438"/><stop stop-color="#762A82" offset=".453"/><stop stop-color="#772A81" offset=".469"/><stop stop-color="#782A80" offset=".484"/><stop stop-color="#792980" offset=".5"/><stop stop-color="#7A297F" offset=".516"/><stop stop-color="#7A297E" offset=".531"/><stop stop-color="#7B297E" offset=".547"/><stop stop-color="#7C287D" offset=".563"/><stop stop-color="#7D287C" offset=".578"/><stop stop-color="#7E287C" offset=".594"/><stop stop-color="#7F287B" offset=".609"/><stop stop-color="#80287A" offset=".625"/><stop stop-color="#81277A" offset=".641"/><stop stop-color="#822779" offset=".648"/><stop stop-color="#822779" offset=".656"/><stop stop-color="#832778" offset=".672"/><stop stop-color="#842778" offset=".688"/><stop stop-color="#852677" offset=".703"/><stop stop-color="#852676" offset=".719"/><stop stop-color="#862676" offset=".734"/><stop stop-color="#872675" offset=".75"/><stop stop-color="#882674" offset=".766"/><stop stop-color="#892574" offset=".781"/><stop stop-color="#8A2573" offset=".797"/><stop stop-color="#8B2572" offset=".813"/><stop stop-color="#8C2572" offset=".828"/><stop stop-color="#8D2471" offset=".844"/><stop stop-color="#8E2471" offset=".859"/><stop stop-color="#8F2470" offset=".875"/><stop stop-color="#8F246F" offset=".891"/><stop stop-color="#90236F" offset=".906"/><stop stop-color="#91236E" offset=".922"/><stop stop-color="#92236D" offset=".938"/><stop stop-color="#93236D" offset=".953"/><stop stop-color="#94236C" offset=".969"/><stop stop-color="#95226B" offset=".984"/><stop stop-color="#96226B" offset="1"/></linearGradient><linearGradient x1=".247" gradientTransform="matrix(-.29512 8.98461 -8.45332 -.27766 164.56 189.15)" xmlns:xlink="http://www.w3.org/1999/xlink" y1="1.122" x2=".787" gradientUnits="userSpaceOnUse" y2="-.107" xlink:type="simple" xlink:actuate="onLoad" id="J" xlink:show="other"><stop stop-color="#D12F33" offset="0"/><stop stop-color="#D13033" offset=".008"/><stop stop-color="#D13033" offset=".016"/><stop stop-color="#D23133" offset=".023"/><stop stop-color="#D23232" offset=".031"/><stop stop-color="#D23332" offset=".039"/><stop stop-color="#D23332" offset=".047"/><stop stop-color="#D33432" offset=".055"/><stop stop-color="#D33532" offset=".063"/><stop stop-color="#D33532" offset=".07"/><stop stop-color="#D33632" offset=".078"/><stop stop-color="#D43732" offset=".086"/><stop stop-color="#D43831" offset=".094"/><stop stop-color="#D43831" offset=".102"/><stop stop-color="#D43931" offset=".109"/><stop stop-color="#D53A31" offset=".117"/><stop stop-color="#D53B31" offset=".125"/><stop stop-color="#D53B31" offset=".133"/><stop stop-color="#D53C31" offset=".141"/><stop stop-color="#D63D30" offset=".148"/><stop stop-color="#D63E30" offset=".156"/><stop stop-color="#D63E30" offset=".164"/><stop stop-color="#D63F30" offset=".172"/><stop stop-color="#D74030" offset=".18"/><stop stop-color="#D74130" offset=".188"/><stop stop-color="#D74130" offset=".195"/><stop stop-color="#D74230" offset=".203"/><stop stop-color="#D7432F" offset=".211"/><stop stop-color="#D8432F" offset=".219"/><stop stop-color="#D8442F" offset=".227"/><stop stop-color="#D8452F" offset=".234"/><stop stop-color="#D8462F" offset=".242"/><stop stop-color="#D9462F" offset=".25"/><stop stop-color="#D9472F" offset=".258"/><stop stop-color="#D9482F" offset=".266"/><stop stop-color="#D9492E" offset=".273"/><stop stop-color="#DA492E" offset=".281"/><stop stop-color="#DA4A2E" offset=".289"/><stop stop-color="#DA4B2E" offset=".297"/><stop stop-color="#DA4C2E" offset=".305"/><stop stop-color="#DB4C2E" offset=".313"/><stop stop-color="#DB4D2E" offset=".318"/><stop stop-color="#DB4D2E" offset=".32"/><stop stop-color="#DB4E2D" offset=".328"/><stop stop-color="#DB4F2D" offset=".336"/><stop stop-color="#DC4F2D" offset=".344"/><stop stop-color="#DC502D" offset=".352"/><stop stop-color="#DC512D" offset=".359"/><stop stop-color="#DC512D" offset=".367"/><stop stop-color="#DD522D" offset=".375"/><stop stop-color="#DD532D" offset=".383"/><stop stop-color="#DD542C" offset=".391"/><stop stop-color="#DD542C" offset=".398"/><stop stop-color="#DE552C" offset=".406"/><stop stop-color="#DE562C" offset=".414"/><stop stop-color="#DE572C" offset=".422"/><stop stop-color="#DE572C" offset=".43"/><stop stop-color="#DF582C" offset=".438"/><stop stop-color="#DF592C" offset=".445"/><stop stop-color="#DF5A2B" offset=".453"/><stop stop-color="#DF5A2B" offset=".461"/><stop stop-color="#DF5B2B" offset=".469"/><stop stop-color="#E05C2B" offset=".477"/><stop stop-color="#E05D2B" offset=".484"/><stop stop-color="#E05D2B" offset=".492"/><stop stop-color="#E05E2B" offset=".5"/><stop stop-color="#E15F2A" offset=".508"/><stop stop-color="#E15F2A" offset=".516"/><stop stop-color="#E1602A" offset=".523"/><stop stop-color="#E1612A" offset=".531"/><stop stop-color="#E2622A" offset=".539"/><stop stop-color="#E2622A" offset=".547"/><stop stop-color="#E2632A" offset=".555"/><stop stop-color="#E2642A" offset=".563"/><stop stop-color="#E36529" offset=".57"/><stop stop-color="#E36529" offset=".578"/><stop stop-color="#E36629" offset=".586"/><stop stop-color="#E36729" offset=".594"/><stop stop-color="#E46829" offset=".602"/><stop stop-color="#E46829" offset=".609"/><stop stop-color="#E46929" offset=".617"/><stop stop-color="#E46A29" offset=".625"/><stop stop-color="#E56A28" offset=".633"/><stop stop-color="#E56B28" offset=".641"/><stop stop-color="#E56C28" offset=".648"/><stop stop-color="#E56D28" offset=".656"/><stop stop-color="#E66D28" offset=".664"/><stop stop-color="#E66E28" offset=".672"/><stop stop-color="#E66F28" offset=".68"/><stop stop-color="#E67027" offset=".682"/><stop stop-color="#E67027" offset=".688"/><stop stop-color="#E77027" offset=".695"/><stop stop-color="#E77127" offset=".703"/><stop stop-color="#E77227" offset=".711"/><stop stop-color="#E77327" offset=".719"/><stop stop-color="#E77327" offset=".727"/><stop stop-color="#E87427" offset=".734"/><stop stop-color="#E87527" offset=".742"/><stop stop-color="#E87626" offset=".75"/><stop stop-color="#E87626" offset=".758"/><stop stop-color="#E97726" offset=".766"/><stop stop-color="#E97826" offset=".781"/><stop stop-color="#E97826" offset=".813"/><stop stop-color="#E97826" offset=".875"/><stop stop-color="#E97826" offset="1"/></linearGradient><linearGradient x1=".124" gradientTransform="matrix(-.39824 12.12425 -15.82825 -.5199 157.485 182.76)" xmlns:xlink="http://www.w3.org/1999/xlink" y1="1.101" x2=".862" gradientUnits="userSpaceOnUse" y2="-.11" xlink:type="simple" xlink:actuate="onLoad" id="P" xlink:show="other"><stop stop-color="#9E2064" offset="0"/><stop stop-color="#9F2063" offset=".008"/><stop stop-color="#9F2063" offset=".016"/><stop stop-color="#A02062" offset=".023"/><stop stop-color="#A02062" offset=".031"/><stop stop-color="#A12061" offset=".039"/><stop stop-color="#A12061" offset=".047"/><stop stop-color="#A22060" offset=".055"/><stop stop-color="#A2205F" offset=".063"/><stop stop-color="#A3205F" offset=".07"/><stop stop-color="#A4205E" offset=".078"/><stop stop-color="#A4205E" offset=".086"/><stop stop-color="#A5205D" offset=".094"/><stop stop-color="#A5205C" offset=".102"/><stop stop-color="#A6205C" offset=".109"/><stop stop-color="#A6205B" offset=".117"/><stop stop-color="#A7205B" offset=".125"/><stop stop-color="#A7205A" offset=".133"/><stop stop-color="#A8205A" offset=".141"/><stop stop-color="#A92059" offset=".148"/><stop stop-color="#A92058" offset=".156"/><stop stop-color="#AA2058" offset=".164"/><stop stop-color="#AA2057" offset=".172"/><stop stop-color="#AB2057" offset=".18"/><stop stop-color="#AB2056" offset=".188"/><stop stop-color="#AC2056" offset=".195"/><stop stop-color="#AC2055" offset=".203"/><stop stop-color="#AD2054" offset=".211"/><stop stop-color="#AE2054" offset=".219"/><stop stop-color="#AE2053" offset=".227"/><stop stop-color="#AF2053" offset=".234"/><stop stop-color="#AF2052" offset=".242"/><stop stop-color="#B02051" offset=".25"/><stop stop-color="#B02051" offset=".258"/><stop stop-color="#B12050" offset=".266"/><stop stop-color="#B12050" offset=".273"/><stop stop-color="#B2204F" offset=".281"/><stop stop-color="#B3204F" offset=".289"/><stop stop-color="#B3204E" offset=".297"/><stop stop-color="#B4204D" offset=".305"/><stop stop-color="#B4204D" offset=".313"/><stop stop-color="#B5204C" offset=".32"/><stop stop-color="#B5204C" offset=".328"/><stop stop-color="#B6204B" offset=".336"/><stop stop-color="#B6204B" offset=".344"/><stop stop-color="#B7204A" offset=".352"/><stop stop-color="#B72049" offset=".359"/><stop stop-color="#B82049" offset=".367"/><stop stop-color="#B92048" offset=".375"/><stop stop-color="#B92048" offset=".383"/><stop stop-color="#BA2047" offset=".391"/><stop stop-color="#BA2046" offset=".398"/><stop stop-color="#BB2046" offset=".398"/><stop stop-color="#BB2046" offset=".406"/><stop stop-color="#BB2045" offset=".414"/><stop stop-color="#BC2045" offset=".422"/><stop stop-color="#BC2044" offset=".43"/><stop stop-color="#BD2044" offset=".438"/><stop stop-color="#BE2043" offset=".445"/><stop stop-color="#BE2042" offset=".453"/><stop stop-color="#BF2042" offset=".461"/><stop stop-color="#BF2041" offset=".469"/><stop stop-color="#C02041" offset=".477"/><stop stop-color="#C02040" offset=".484"/><stop stop-color="#C12040" offset=".492"/><stop stop-color="#C1203F" offset=".5"/><stop stop-color="#C2203E" offset=".508"/><stop stop-color="#C3203E" offset=".516"/><stop stop-color="#C3203D" offset=".523"/><stop stop-color="#C4203D" offset=".531"/><stop stop-color="#C4203C" offset=".539"/><stop stop-color="#C5203B" offset=".547"/><stop stop-color="#C5203B" offset=".555"/><stop stop-color="#C6203A" offset=".563"/><stop stop-color="#C6203A" offset=".57"/><stop stop-color="#C72039" offset=".578"/><stop stop-color="#C82039" offset=".586"/><stop stop-color="#C82038" offset=".594"/><stop stop-color="#C92037" offset=".602"/><stop stop-color="#C92037" offset=".625"/><stop stop-color="#CA2037" offset=".656"/><stop stop-color="#CA2136" offset=".688"/><stop stop-color="#CB2136" offset=".719"/><stop stop-color="#CB2236" offset=".75"/><stop stop-color="#CC2236" offset=".781"/><stop stop-color="#CC2235" offset=".813"/><stop stop-color="#CD2335" offset=".844"/><stop stop-color="#CD2435" offset=".848"/><stop stop-color="#CE2535" offset=".852"/><stop stop-color="#CE2535" offset=".855"/><stop stop-color="#CE2634" offset=".859"/><stop stop-color="#CE2734" offset=".863"/><stop stop-color="#CF2734" offset=".867"/><stop stop-color="#CF2834" offset=".871"/><stop stop-color="#CF2934" offset=".875"/><stop stop-color="#CF2A34" offset=".879"/><stop stop-color="#CF2A34" offset=".883"/><stop stop-color="#D02B34" offset=".887"/><stop stop-color="#D02C34" offset=".891"/><stop stop-color="#D02C33" offset=".895"/><stop stop-color="#D02D33" offset=".898"/><stop stop-color="#D12E33" offset=".902"/><stop stop-color="#D12E33" offset=".906"/><stop stop-color="#D12F33" offset=".91"/><stop stop-color="#D13033" offset=".914"/><stop stop-color="#D13033" offset=".918"/><stop stop-color="#D23133" offset=".922"/><stop stop-color="#D23232" offset=".926"/><stop stop-color="#D23232" offset=".93"/><stop stop-color="#D23332" offset=".934"/><stop stop-color="#D33432" offset=".938"/><stop stop-color="#D33432" offset=".941"/><stop stop-color="#D33532" offset=".945"/><stop stop-color="#D33632" offset=".949"/><stop stop-color="#D33632" offset=".953"/><stop stop-color="#D43731" offset=".957"/><stop stop-color="#D43831" offset=".961"/><stop stop-color="#D43831" offset=".965"/><stop stop-color="#D43931" offset=".969"/><stop stop-color="#D53A31" offset=".973"/><stop stop-color="#D53A31" offset=".977"/><stop stop-color="#D53B31" offset=".98"/><stop stop-color="#D53C31" offset=".984"/><stop stop-color="#D53D31" offset=".988"/><stop stop-color="#D63D30" offset=".992"/><stop stop-color="#D63E30" offset=".996"/><stop stop-color="#D63F30" offset="1"/></linearGradient><linearGradient x1=".164" gradientTransform="matrix(-.23652 7.20074 -6.8256 -.2242 143.339 180.93)" xmlns:xlink="http://www.w3.org/1999/xlink" y1="1.089" x2=".709" gradientUnits="userSpaceOnUse" y2="-.142" xlink:type="simple" xlink:actuate="onLoad" id="V" xlink:show="other"><stop stop-color="#732B84" offset="0"/><stop stop-color="#742B83" offset=".031"/><stop stop-color="#752A83" offset=".063"/><stop stop-color="#752A82" offset=".094"/><stop stop-color="#762A81" offset=".125"/><stop stop-color="#772A81" offset=".156"/><stop stop-color="#782980" offset=".188"/><stop stop-color="#79297F" offset=".219"/><stop stop-color="#7A297E" offset=".25"/><stop stop-color="#7B297E" offset=".281"/><stop stop-color="#7C287D" offset=".313"/><stop stop-color="#7D287C" offset=".317"/><stop stop-color="#7E287C" offset=".344"/><stop stop-color="#7E287C" offset=".375"/><stop stop-color="#7F287B" offset=".406"/><stop stop-color="#80277A" offset=".438"/><stop stop-color="#81277A" offset=".469"/><stop stop-color="#822779" offset=".5"/><stop stop-color="#832778" offset=".531"/><stop stop-color="#842778" offset=".563"/><stop stop-color="#852677" offset=".594"/><stop stop-color="#862676" offset=".625"/><stop stop-color="#872675" offset=".656"/><stop stop-color="#882675" offset=".683"/><stop stop-color="#882574" offset=".688"/><stop stop-color="#892574" offset=".719"/><stop stop-color="#8A2573" offset=".75"/><stop stop-color="#8B2573" offset=".781"/><stop stop-color="#8C2572" offset=".813"/><stop stop-color="#8D2471" offset=".844"/><stop stop-color="#8E2471" offset=".875"/><stop stop-color="#8F2470" offset=".906"/><stop stop-color="#8F246F" offset=".938"/><stop stop-color="#90236F" offset=".969"/><stop stop-color="#91236E" offset="1"/></linearGradient><radialGradient gradientTransform="matrix(1.00698 0 0 .99302 268.8 179.812)" xmlns:xlink="http://www.w3.org/1999/xlink" gradientUnits="userSpaceOnUse" xlink:type="simple" r="30.17" xlink:actuate="onLoad" cx="0" id="f" cy="0" xlink:show="other" fx="0" fy="0"><stop stop-color="#AEB2D5" offset="0"/><stop stop-color="#AEB2D5" offset=".25"/><stop stop-color="#AEB2D5" offset=".297"/><stop stop-color="#ADB1D4" offset=".301"/><stop stop-color="#ACB0D4" offset=".305"/><stop stop-color="#ACB0D3" offset=".309"/><stop stop-color="#ABAFD2" offset=".313"/><stop stop-color="#AAAED2" offset=".316"/><stop stop-color="#A9ADD1" offset=".32"/><stop stop-color="#A8ACD1" offset=".324"/><stop stop-color="#A7ABD0" offset=".328"/><stop stop-color="#A6AACF" offset=".332"/><stop stop-color="#A5A9CF" offset=".336"/><stop stop-color="#A4A9CE" offset=".34"/><stop stop-color="#A4A8CD" offset=".344"/><stop stop-color="#A3A7CD" offset=".348"/><stop stop-color="#A2A6CC" offset=".352"/><stop stop-color="#A1A5CB" offset=".355"/><stop stop-color="#A0A4CB" offset=".359"/><stop stop-color="#9FA3CA" offset=".363"/><stop stop-color="#9EA2C9" offset=".367"/><stop stop-color="#9DA1C9" offset=".371"/><stop stop-color="#9CA1C8" offset=".375"/><stop stop-color="#9CA0C7" offset=".379"/><stop stop-color="#9B9FC7" offset=".383"/><stop stop-color="#9A9EC6" offset=".387"/><stop stop-color="#999DC5" offset=".391"/><stop stop-color="#989CC5" offset=".395"/><stop stop-color="#979BC4" offset=".398"/><stop stop-color="#969AC3" offset=".402"/><stop stop-color="#9599C3" offset=".406"/><stop stop-color="#9499C2" offset=".41"/><stop stop-color="#9498C1" offset=".414"/><stop stop-color="#9397C1" offset=".418"/><stop stop-color="#9296C0" offset=".422"/><stop stop-color="#9195BF" offset=".426"/><stop stop-color="#9094BF" offset=".43"/><stop stop-color="#8F93BE" offset=".434"/><stop stop-color="#8E92BD" offset=".438"/><stop stop-color="#8D91BD" offset=".441"/><stop stop-color="#8D91BC" offset=".445"/><stop stop-color="#8C90BB" offset=".449"/><stop stop-color="#8B8FBB" offset=".453"/><stop stop-color="#8A8EBA" offset=".457"/><stop stop-color="#898DB9" offset=".461"/><stop stop-color="#888CB9" offset=".465"/><stop stop-color="#878BB8" offset=".469"/><stop stop-color="#868AB7" offset=".473"/><stop stop-color="#858AB7" offset=".477"/><stop stop-color="#8589B6" offset=".48"/><stop stop-color="#8488B5" offset=".484"/><stop stop-color="#8387B5" offset=".488"/><stop stop-color="#8286B4" offset=".492"/><stop stop-color="#8185B3" offset=".496"/><stop stop-color="#8084B3" offset=".5"/><stop stop-color="#7F83B2" offset=".504"/><stop stop-color="#7E82B1" offset=".508"/><stop stop-color="#7D82B1" offset=".512"/><stop stop-color="#7D81B0" offset=".516"/><stop stop-color="#7C80B0" offset=".52"/><stop stop-color="#7B7FAF" offset=".523"/><stop stop-color="#7A7EAE" offset=".527"/><stop stop-color="#797DAE" offset=".531"/><stop stop-color="#787CAD" offset=".535"/><stop stop-color="#777BAC" offset=".539"/><stop stop-color="#767AAC" offset=".543"/><stop stop-color="#767AAB" offset=".547"/><stop stop-color="#7579AA" offset=".551"/><stop stop-color="#7478AA" offset=".555"/><stop stop-color="#7377A9" offset=".559"/><stop stop-color="#7276A8" offset=".563"/><stop stop-color="#7175A8" offset=".566"/><stop stop-color="#7074A7" offset=".57"/><stop stop-color="#6F73A6" offset=".574"/><stop stop-color="#6E73A6" offset=".578"/><stop stop-color="#6E72A5" offset=".582"/><stop stop-color="#6D71A4" offset=".586"/><stop stop-color="#6C70A4" offset=".59"/><stop stop-color="#6B6FA3" offset=".594"/><stop stop-color="#6A6EA2" offset=".598"/><stop stop-color="#696DA2" offset=".602"/><stop stop-color="#686CA1" offset=".605"/><stop stop-color="#676BA0" offset=".609"/><stop stop-color="#666BA0" offset=".613"/><stop stop-color="#666A9F" offset=".617"/><stop stop-color="#65699E" offset=".621"/><stop stop-color="#64689E" offset=".625"/><stop stop-color="#63679D" offset=".629"/><stop stop-color="#62669C" offset=".633"/><stop stop-color="#61659C" offset=".637"/><stop stop-color="#60649B" offset=".641"/><stop stop-color="#5F639A" offset=".645"/><stop stop-color="#5E639A" offset=".648"/><stop stop-color="#5E6299" offset=".652"/><stop stop-color="#5D6198" offset=".656"/><stop stop-color="#5C6098" offset=".66"/><stop stop-color="#5B5F97" offset=".664"/><stop stop-color="#5A5E96" offset=".668"/><stop stop-color="#595D96" offset=".672"/><stop stop-color="#585C95" offset=".676"/><stop stop-color="#575B94" offset=".68"/><stop stop-color="#575B94" offset=".684"/><stop stop-color="#565A93" offset=".688"/><stop stop-color="#555992" offset=".691"/><stop stop-color="#545892" offset=".695"/><stop stop-color="#535791" offset=".699"/><stop stop-color="#525691" offset=".703"/><stop stop-color="#515590" offset=".707"/><stop stop-color="#50548F" offset=".711"/><stop stop-color="#4F548F" offset=".715"/><stop stop-color="#4F538E" offset=".719"/><stop stop-color="#4E528D" offset=".723"/><stop stop-color="#4D518D" offset=".727"/><stop stop-color="#4C508C" offset=".73"/><stop stop-color="#4B4F8B" offset=".734"/><stop stop-color="#4A4E8B" offset=".738"/><stop stop-color="#494D8A" offset=".742"/><stop stop-color="#484C89" offset=".746"/><stop stop-color="#484C89" offset="1"/></radialGradient></defs><path fill="#FFF" d="M-37.5 -37.5H412.5V412.5H-37.5z"/><path fill="#FFF" d="M-37.5 -37.5H412.5V412.5H-37.5z"/><path fill="#2E71E5" d="M-37.5 -37.5H412.5V412.5H-37.5z"/><g clip-path="url(#a)"><path fill="#FFF" d="M 290.398438 154.761719 C 285.011719 154.761719 279.796875 155.492188 274.835938 156.835938 C 263.765625 124.578125 233.210938 101.382812 197.230469 101.382812 C 163.089844 101.382812 133.828125 122.257812 121.460938 151.949219 C 117.050781 150.546875 112.359375 149.789062 107.488281 149.789062 C 81.976562 149.789062 61.300781 170.492188 61.300781 196.027344 C 61.300781 196.058594 61.304688 196.085938 61.304688 196.117188 C 41.074219 197.433594 25.074219 214.265625 25.074219 234.847656 C 25.074219 256.292969 42.4375 273.671875 63.855469 273.671875 C 64.449219 273.671875 65.039062 273.65625 65.625 273.628906 L 65.628906 273.671875 L 65.929688 273.617188 C 66.195312 273.601562 66.457031 273.574219 66.722656 273.554688 L 285.835938 273.554688 C 287.34375 273.671875 288.863281 273.746094 290.398438 273.746094 C 323.21875 273.746094 349.824219 247.113281 349.824219 214.257812 C 349.824219 181.398438 323.21875 154.761719 290.398438 154.761719 Z M 290.398438 154.761719"/></g><g clip-path="url(#b)"><path fill="#DD4814" d="M 123.207031 184.03125 C 123.207031 195.421875 113.972656 204.65625 102.582031 204.65625 C 91.191406 204.65625 81.957031 195.421875 81.957031 184.03125 C 81.957031 172.640625 91.191406 163.40625 102.582031 163.40625 C 113.972656 163.40625 123.207031 172.640625 123.207031 184.03125 Z M 123.207031 184.03125"/></g><path fill="#FFF" d="M 88.558594 181.277344 C 87.035156 181.277344 85.800781 182.507812 85.800781 184.03125 C 85.800781 185.554688 87.035156 186.785156 88.558594 186.785156 C 90.078125 186.785156 91.3125 185.550781 91.3125 184.03125 C 91.3125 182.507812 90.078125 181.277344 88.558594 181.277344 Z M 108.21875 193.792969 C 106.898438 194.566406 106.449219 196.238281 107.210938 197.554688 C 107.96875 198.871094 109.652344 199.320312 110.96875 198.5625 C 112.289062 197.800781 112.738281 196.117188 111.976562 194.800781 C 111.21875 193.484375 109.535156 193.035156 108.21875 193.792969 Z M 94.539062 184.03125 C 94.539062 182.71875 94.839844 181.484375 95.441406 180.320312 C 96.046875 179.160156 96.886719 178.203125 97.957031 177.449219 L 95.945312 174.078125 C 94.722656 174.894531 93.683594 175.902344 92.832031 177.101562 C 91.980469 178.296875 91.367188 179.609375 91 181.03125 C 91.871094 181.742188 92.425781 182.816406 92.425781 184.03125 C 92.425781 185.242188 91.867188 186.320312 91 187.027344 C 91.742188 189.910156 93.535156 192.371094 95.945312 193.984375 L 97.960938 190.609375 C 96.886719 189.859375 96.046875 188.902344 95.445312 187.738281 C 94.839844 186.578125 94.539062 185.339844 94.539062 184.03125 Z M 102.582031 175.984375 C 103.082031 175.984375 103.574219 176.03125 104.0625 176.125 C 104.554688 176.214844 105.03125 176.351562 105.496094 176.53125 C 105.957031 176.710938 106.402344 176.933594 106.824219 177.195312 C 107.25 177.460938 107.644531 177.757812 108.011719 178.09375 C 108.378906 178.433594 108.710938 178.800781 109.011719 179.199219 C 109.3125 179.59375 109.570312 180.019531 109.792969 180.464844 C 110.011719 180.910156 110.191406 181.375 110.324219 181.855469 C 110.460938 182.332031 110.550781 182.820312 110.59375 183.316406 L 114.515625 183.257812 C 114.425781 181.792969 114.070312 180.386719 113.457031 179.050781 C 112.847656 177.714844 112.015625 176.53125 110.964844 175.5 C 109.917969 175.894531 108.707031 175.835938 107.664062 175.230469 C 107.160156 174.941406 106.742188 174.558594 106.414062 174.078125 C 106.082031 173.601562 105.871094 173.074219 105.78125 172.5 C 104.773438 172.222656 103.691406 172.066406 102.582031 172.066406 C 100.679688 172.066406 98.878906 172.515625 97.28125 173.304688 L 99.191406 176.734375 C 100.222656 176.253906 101.371094 175.984375 102.582031 175.984375 Z M 102.582031 192.074219 C 101.371094 192.074219 100.222656 191.804688 99.195312 191.324219 L 97.28125 194.753906 C 98.878906 195.546875 100.679688 195.992188 102.582031 195.992188 C 103.667969 195.992188 104.734375 195.847656 105.777344 195.558594 C 105.960938 194.449219 106.617188 193.433594 107.660156 192.828125 C 108.703125 192.21875 109.917969 192.164062 110.960938 192.558594 C 112.011719 191.53125 112.84375 190.347656 113.457031 189.007812 C 114.070312 187.671875 114.421875 186.269531 114.515625 184.800781 L 110.589844 184.742188 C 110.546875 185.238281 110.457031 185.726562 110.320312 186.207031 C 110.1875 186.683594 110.007812 187.148438 109.789062 187.59375 C 109.566406 188.039062 109.308594 188.464844 109.007812 188.863281 C 108.710938 189.257812 108.375 189.625 108.007812 189.964844 C 107.640625 190.300781 107.246094 190.597656 106.824219 190.863281 C 106.402344 191.125 105.957031 191.347656 105.492188 191.527344 C 105.027344 191.707031 104.550781 191.84375 104.0625 191.933594 C 103.574219 192.027344 103.078125 192.074219 102.582031 192.074219 Z M 108.21875 174.269531 C 109.535156 175.042969 111.21875 174.578125 111.976562 173.261719 C 112.738281 171.949219 112.289062 170.261719 110.972656 169.5 C 109.65625 168.742188 107.972656 169.191406 107.210938 170.511719 C 106.449219 171.828125 106.902344 173.511719 108.21875 174.269531 Z M 108.21875 174.269531"/><g clip-path="url(#c)"><g clip-path="url(#d)"><g clip-path="url(#e)"><path fill="url(#f)" d="M 254.910156 175.59375 L 254.910156 199.578125 L 301.179688 199.578125 L 301.179688 175.59375 Z M 254.910156 175.59375"/></g></g></g><path fill="#777BB3" d="M 278.042969 198.703125 C 290.320312 198.703125 300.277344 193.730469 300.277344 187.59375 C 300.277344 181.457031 290.320312 176.484375 278.042969 176.484375 C 265.765625 176.484375 255.8125 181.457031 255.8125 187.59375 C 255.8125 193.730469 265.765625 198.703125 278.042969 198.703125"/><path d="M 267.476562 188.972656 C 268.488281 188.972656 269.242188 188.789062 269.71875 188.425781 C 270.191406 188.066406 270.515625 187.449219 270.6875 186.582031 C 270.847656 185.773438 270.785156 185.207031 270.507812 184.902344 C 270.222656 184.589844 269.605469 184.433594 268.675781 184.433594 L 267.0625 184.433594 L 266.167969 188.972656 Z M 262.203125 194.5625 C 262.125 194.5625 262.054688 194.53125 262.007812 194.472656 C 261.957031 194.414062 261.941406 194.34375 261.953125 194.269531 L 264.324219 182.242188 C 264.351562 182.109375 264.433594 182.039062 264.570312 182.039062 L 269.679688 182.039062 C 271.285156 182.039062 272.480469 182.46875 273.234375 183.320312 C 273.988281 184.171875 274.222656 185.363281 273.925781 186.859375 C 273.804688 187.46875 273.597656 188.035156 273.3125 188.542969 C 273.023438 189.050781 272.644531 189.523438 272.179688 189.941406 C 271.628906 190.453125 271 190.824219 270.320312 191.042969 C 269.652344 191.257812 268.789062 191.367188 267.765625 191.367188 L 265.695312 191.367188 L 265.105469 194.363281 C 265.078125 194.496094 264.996094 194.5625 264.859375 194.5625 L 262.199219 194.5625 Z M 262.203125 194.5625"/><path fill="#FFF" d="M 267.269531 184.679688 L 268.675781 184.679688 C 269.796875 184.679688 270.1875 184.925781 270.320312 185.070312 C 270.539062 185.308594 270.582031 185.816406 270.441406 186.535156 C 270.28125 187.339844 269.988281 187.910156 269.566406 188.230469 C 269.132812 188.558594 268.429688 188.722656 267.476562 188.722656 L 266.472656 188.722656 Z M 269.679688 181.792969 L 264.570312 181.792969 C 264.453125 181.792969 264.34375 181.832031 264.253906 181.90625 C 264.160156 181.980469 264.101562 182.078125 264.078125 182.195312 L 261.707031 194.222656 C 261.679688 194.375 261.714844 194.511719 261.8125 194.628906 C 261.914062 194.75 262.042969 194.8125 262.203125 194.8125 L 264.859375 194.8125 C 264.976562 194.8125 265.085938 194.773438 265.175781 194.699219 C 265.269531 194.621094 265.328125 194.527344 265.351562 194.410156 L 265.902344 191.613281 L 267.765625 191.613281 C 268.816406 191.613281 269.703125 191.5 270.398438 191.277344 C 271.113281 191.046875 271.769531 190.660156 272.351562 190.121094 C 272.835938 189.6875 273.230469 189.195312 273.53125 188.664062 C 273.832031 188.136719 274.046875 187.542969 274.171875 186.90625 C 274.484375 185.332031 274.230469 184.070312 273.421875 183.15625 C 272.621094 182.253906 271.363281 181.792969 269.679688 181.792969 M 265.863281 189.21875 L 267.480469 189.21875 C 268.550781 189.21875 269.347656 189.019531 269.871094 188.625 C 270.394531 188.226562 270.75 187.5625 270.933594 186.628906 C 271.109375 185.734375 271.027344 185.105469 270.691406 184.738281 C 270.359375 184.371094 269.683594 184.1875 268.675781 184.1875 L 266.855469 184.1875 L 265.863281 189.21875 M 269.679688 182.289062 C 271.21875 182.289062 272.339844 182.6875 273.042969 183.480469 C 273.75 184.277344 273.960938 185.386719 273.679688 186.8125 C 273.5625 187.402344 273.367188 187.9375 273.09375 188.425781 C 272.816406 188.910156 272.457031 189.355469 272.011719 189.757812 C 271.480469 190.25 270.890625 190.597656 270.242188 190.804688 C 269.59375 191.015625 268.769531 191.117188 267.765625 191.117188 L 265.488281 191.117188 L 264.859375 194.316406 L 262.203125 194.316406 L 264.574219 182.289062 L 269.679688 182.289062"/><path d="M 280.015625 191.363281 C 279.941406 191.363281 279.871094 191.332031 279.824219 191.273438 C 279.777344 191.21875 279.757812 191.144531 279.769531 191.070312 L 280.820312 185.75 C 280.917969 185.242188 280.894531 184.878906 280.75 184.726562 C 280.660156 184.632812 280.394531 184.472656 279.613281 184.472656 L 277.710938 184.472656 L 276.394531 191.164062 C 276.367188 191.296875 276.285156 191.363281 276.148438 191.363281 L 273.511719 191.363281 C 273.433594 191.363281 273.367188 191.335938 273.316406 191.273438 C 273.265625 191.214844 273.25 191.148438 273.265625 191.070312 L 275.636719 179.042969 C 275.660156 178.910156 275.742188 178.84375 275.882812 178.84375 L 278.515625 178.84375 C 278.597656 178.84375 278.660156 178.871094 278.710938 178.933594 C 278.761719 178.992188 278.777344 179.0625 278.765625 179.136719 L 278.191406 182.039062 L 280.234375 182.039062 C 281.792969 182.039062 282.847656 182.3125 283.464844 182.867188 C 284.089844 183.4375 284.285156 184.34375 284.042969 185.566406 L 282.941406 191.164062 C 282.914062 191.296875 282.832031 191.363281 282.695312 191.363281 Z M 280.015625 191.363281"/><path fill="#FFF" d="M 278.519531 178.59375 L 275.882812 178.59375 C 275.761719 178.59375 275.65625 178.632812 275.5625 178.707031 C 275.46875 178.785156 275.410156 178.878906 275.390625 178.996094 L 273.019531 191.023438 C 272.988281 191.175781 273.023438 191.3125 273.125 191.433594 C 273.222656 191.550781 273.355469 191.613281 273.511719 191.613281 L 276.148438 191.613281 C 276.265625 191.613281 276.375 191.574219 276.464844 191.5 C 276.558594 191.425781 276.617188 191.328125 276.640625 191.210938 L 277.917969 184.722656 L 279.613281 184.722656 C 280.394531 184.722656 280.558594 184.886719 280.566406 184.894531 C 280.613281 184.945312 280.675781 185.179688 280.574219 185.703125 L 279.523438 191.023438 C 279.496094 191.175781 279.53125 191.3125 279.628906 191.433594 C 279.730469 191.550781 279.859375 191.613281 280.015625 191.613281 L 282.695312 191.613281 C 282.816406 191.613281 282.921875 191.574219 283.015625 191.5 C 283.105469 191.425781 283.164062 191.328125 283.1875 191.210938 L 284.292969 185.613281 C 284.550781 184.300781 284.328125 183.316406 283.632812 182.6875 C 282.96875 182.085938 281.859375 181.792969 280.234375 181.792969 L 278.496094 181.792969 L 279.011719 179.183594 C 279.039062 179.03125 279.003906 178.894531 278.90625 178.773438 C 278.804688 178.65625 278.675781 178.59375 278.519531 178.59375 M 278.519531 179.089844 L 277.886719 182.289062 L 280.234375 182.289062 C 281.714844 182.289062 282.734375 182.542969 283.292969 183.050781 C 283.855469 183.558594 284.023438 184.382812 283.796875 185.519531 L 282.695312 191.117188 L 280.019531 191.117188 L 281.066406 185.796875 C 281.1875 185.191406 281.140625 184.777344 280.933594 184.558594 C 280.726562 184.335938 280.285156 184.226562 279.613281 184.226562 L 277.503906 184.226562 L 276.148438 191.117188 L 273.511719 191.117188 L 275.882812 179.089844 L 278.519531 179.089844"/><path d="M 288.214844 188.972656 C 289.226562 188.972656 289.976562 188.789062 290.457031 188.425781 C 290.925781 188.066406 291.253906 187.449219 291.421875 186.582031 C 291.582031 185.773438 291.523438 185.207031 291.242188 184.902344 C 290.957031 184.589844 290.34375 184.433594 289.410156 184.433594 L 287.796875 184.433594 L 286.902344 188.972656 Z M 282.9375 194.5625 C 282.863281 194.5625 282.792969 194.53125 282.746094 194.472656 C 282.695312 194.414062 282.675781 194.34375 282.691406 194.269531 L 285.0625 182.242188 C 285.089844 182.105469 285.171875 182.039062 285.308594 182.039062 L 290.417969 182.039062 C 292.023438 182.039062 293.21875 182.46875 293.96875 183.320312 C 294.726562 184.171875 294.957031 185.363281 294.664062 186.859375 C 294.542969 187.46875 294.335938 188.035156 294.046875 188.542969 C 293.761719 189.050781 293.378906 189.523438 292.917969 189.941406 C 292.363281 190.453125 291.738281 190.824219 291.058594 191.039062 C 290.386719 191.257812 289.527344 191.363281 288.5 191.363281 L 286.429688 191.363281 L 285.839844 194.363281 C 285.8125 194.496094 285.730469 194.5625 285.59375 194.5625 Z M 282.9375 194.5625"/><path fill="#FFF" d="M 288.003906 184.679688 L 289.410156 184.679688 C 290.535156 184.679688 290.925781 184.925781 291.058594 185.070312 C 291.277344 185.308594 291.320312 185.816406 291.175781 186.535156 C 291.019531 187.339844 290.722656 187.910156 290.300781 188.230469 C 289.871094 188.558594 289.167969 188.722656 288.214844 188.722656 L 287.207031 188.722656 Z M 290.417969 181.792969 L 285.308594 181.792969 C 285.1875 181.792969 285.082031 181.832031 284.988281 181.90625 C 284.898438 181.980469 284.839844 182.078125 284.816406 182.195312 L 282.445312 194.222656 C 282.414062 194.375 282.449219 194.511719 282.550781 194.628906 C 282.652344 194.75 282.78125 194.8125 282.9375 194.8125 L 285.59375 194.8125 C 285.714844 194.8125 285.820312 194.773438 285.914062 194.699219 C 286.007812 194.621094 286.066406 194.527344 286.085938 194.410156 L 286.640625 191.613281 L 288.5 191.613281 C 289.554688 191.613281 290.441406 191.5 291.136719 191.277344 C 291.851562 191.046875 292.507812 190.660156 293.089844 190.121094 C 293.570312 189.6875 293.96875 189.195312 294.265625 188.664062 C 294.566406 188.136719 294.785156 187.542969 294.910156 186.90625 C 295.21875 185.332031 294.96875 184.070312 294.160156 183.15625 C 293.359375 182.253906 292.097656 181.792969 290.417969 181.792969 M 286.597656 189.21875 L 288.214844 189.21875 C 289.285156 189.21875 290.085938 189.019531 290.609375 188.625 C 291.132812 188.226562 291.484375 187.5625 291.671875 186.628906 C 291.847656 185.734375 291.765625 185.105469 291.429688 184.738281 C 291.09375 184.371094 290.421875 184.1875 289.410156 184.1875 L 287.589844 184.1875 L 286.597656 189.21875 M 290.417969 182.289062 C 291.953125 182.289062 293.074219 182.6875 293.78125 183.480469 C 294.484375 184.277344 294.699219 185.386719 294.417969 186.8125 C 294.300781 187.402344 294.105469 187.9375 293.828125 188.425781 C 293.554688 188.910156 293.191406 189.355469 292.746094 189.757812 C 292.21875 190.25 291.628906 190.597656 290.980469 190.804688 C 290.332031 191.015625 289.503906 191.117188 288.5 191.117188 L 286.226562 191.117188 L 285.59375 194.316406 L 282.9375 194.316406 L 285.308594 182.289062 L 290.417969 182.289062"/><g clip-path="url(#g)"><g clip-path="url(#h)"><g clip-path="url(#i)"><g clip-path="url(#j)"><g clip-path="url(#k)"><path fill="url(#l)" d="M 170.046875 192.253906 L 163.820312 192.046875 L 163.605469 198.65625 L 169.832031 198.859375 Z M 170.046875 192.253906"/></g></g></g></g></g><g clip-path="url(#m)"><g clip-path="url(#n)"><g clip-path="url(#o)"><g clip-path="url(#p)"><g clip-path="url(#q)"><path fill="url(#r)" d="M 166.371094 187.183594 L 156.375 186.855469 L 156.160156 193.355469 L 166.15625 193.683594 Z M 166.371094 187.183594"/></g></g></g></g></g><g clip-path="url(#s)"><g clip-path="url(#t)"><g clip-path="url(#u)"><g clip-path="url(#v)"><g clip-path="url(#w)"><path fill="url(#x)" d="M 159.722656 180.464844 L 142.050781 179.882812 L 141.765625 188.613281 L 159.433594 189.191406 Z M 159.722656 180.464844"/></g></g></g></g></g><g clip-path="url(#y)"><g clip-path="url(#z)"><g clip-path="url(#A)"><g clip-path="url(#B)"><g clip-path="url(#C)"><path fill="url(#D)" d="M 145.316406 176.402344 L 128.574219 175.851562 L 128.375 181.890625 L 145.117188 182.441406 Z M 145.316406 176.402344"/></g></g></g></g></g><g clip-path="url(#E)"><g clip-path="url(#F)"><g clip-path="url(#G)"><g clip-path="url(#H)"><g clip-path="url(#I)"><path fill="url(#J)" d="M 164.570312 188.882812 L 156.113281 188.605469 L 155.800781 198.125 L 164.253906 198.402344 Z M 164.570312 188.882812"/></g></g></g></g></g><g clip-path="url(#K)"><g clip-path="url(#L)"><g clip-path="url(#M)"><g clip-path="url(#N)"><g clip-path="url(#O)"><path fill="url(#P)" d="M 157.5 182.253906 L 141.671875 181.734375 L 141.238281 194.871094 L 157.070312 195.390625 Z M 157.5 182.253906"/></g></g></g></g></g><g clip-path="url(#Q)"><g clip-path="url(#R)"><g clip-path="url(#S)"><g clip-path="url(#T)"><g clip-path="url(#U)"><path fill="url(#V)" d="M 143.34375 180.757812 L 136.480469 180.53125 L 136.234375 188.121094 L 143.09375 188.347656 Z M 143.34375 180.757812"/></g></g></g></g></g><g clip-path="url(#W)"><path fill="#00618A" d="M 187.691406 199.109375 L 189.410156 199.109375 L 189.410156 192.289062 L 192.066406 198.238281 C 192.378906 198.953125 192.808594 199.210938 193.652344 199.210938 C 194.492188 199.210938 194.90625 198.957031 195.21875 198.238281 L 197.878906 192.289062 L 197.878906 199.113281 L 199.59375 199.113281 L 199.59375 192.300781 C 199.59375 191.636719 199.332031 191.316406 198.785156 191.152344 C 197.480469 190.742188 196.605469 191.09375 196.210938 191.980469 L 193.601562 197.847656 L 191.078125 191.980469 C 190.695312 191.09375 189.804688 190.738281 188.5 191.148438 C 187.957031 191.3125 187.691406 191.636719 187.691406 192.300781 Z M 201.023438 193.558594 L 202.738281 193.558594 L 202.738281 197.316406 C 202.722656 197.519531 202.804688 198 203.746094 198.011719 C 204.226562 198.019531 207.449219 198.011719 207.476562 198.011719 L 207.476562 193.539062 L 209.199219 193.539062 C 209.207031 193.539062 209.195312 199.640625 209.195312 199.667969 C 209.207031 201.171875 207.339844 201.496094 206.480469 201.523438 L 201.058594 201.523438 L 201.058594 200.359375 L 206.492188 200.359375 C 207.597656 200.242188 207.464844 199.691406 207.464844 199.503906 L 207.464844 199.050781 L 203.816406 199.050781 C 202.117188 199.035156 201.039062 198.289062 201.023438 197.433594 C 201.023438 197.355469 201.0625 193.59375 201.023438 193.558594 Z M 201.023438 193.558594"/></g><path fill="#E48E00" d="M 210.523438 199.109375 L 215.457031 199.109375 C 216.035156 199.109375 216.597656 198.988281 217.042969 198.777344 C 217.785156 198.433594 218.148438 197.96875 218.148438 197.359375 L 218.148438 196.097656 C 218.148438 195.597656 217.738281 195.132812 216.929688 194.824219 C 216.5 194.65625 215.972656 194.570312 215.460938 194.570312 L 213.378906 194.570312 C 212.6875 194.570312 212.355469 194.359375 212.273438 193.894531 C 212.257812 193.839844 212.257812 193.792969 212.257812 193.738281 L 212.257812 192.953125 C 212.257812 192.910156 212.257812 192.863281 212.273438 192.808594 C 212.355469 192.453125 212.539062 192.355469 213.148438 192.296875 C 213.199219 192.296875 213.261719 192.285156 213.3125 192.285156 L 218.214844 192.285156 L 218.214844 191.132812 L 213.394531 191.132812 C 212.703125 191.132812 212.339844 191.179688 212.007812 191.277344 C 210.984375 191.601562 210.539062 192.113281 210.539062 192.996094 L 210.539062 194.003906 C 210.539062 194.78125 211.414062 195.445312 212.882812 195.597656 C 213.046875 195.609375 213.210938 195.621094 213.378906 195.621094 L 215.160156 195.621094 C 215.226562 195.621094 215.292969 195.621094 215.34375 195.632812 C 215.886719 195.675781 216.117188 195.777344 216.285156 195.976562 C 216.386719 196.078125 216.414062 196.175781 216.414062 196.28125 L 216.414062 197.289062 C 216.414062 197.414062 216.332031 197.566406 216.167969 197.699219 C 216.019531 197.832031 215.773438 197.921875 215.441406 197.945312 C 215.375 197.945312 215.324219 197.953125 215.261719 197.953125 L 210.523438 197.953125 Z M 228.859375 197.105469 C 228.859375 198.289062 229.734375 198.953125 231.503906 199.085938 C 231.667969 199.101562 231.832031 199.105469 231.996094 199.109375 L 236.472656 199.109375 L 236.472656 197.957031 L 231.964844 197.957031 C 230.957031 197.957031 230.578125 197.703125 230.578125 197.09375 L 230.578125 191.136719 L 228.859375 191.136719 Z M 219.246094 197.164062 L 219.246094 193.058594 C 219.246094 192.015625 219.972656 191.382812 221.414062 191.183594 C 221.566406 191.164062 221.71875 191.152344 221.875 191.152344 L 225.136719 191.152344 C 225.296875 191.152344 225.457031 191.164062 225.613281 191.183594 C 227.054688 191.382812 227.78125 192.015625 227.78125 193.058594 L 227.78125 197.164062 C 227.78125 198.011719 227.472656 198.464844 226.761719 198.757812 L 228.453125 200.296875 L 226.457031 200.296875 L 225.089844 199.050781 L 223.710938 199.140625 L 221.875 199.140625 C 221.5625 199.140625 221.230469 199.097656 220.867188 198.996094 C 219.773438 198.695312 219.246094 198.121094 219.246094 197.164062 Z M 221.097656 197.0625 C 221.097656 197.117188 221.117188 197.171875 221.132812 197.242188 C 221.234375 197.71875 221.675781 197.984375 222.351562 197.984375 L 223.914062 197.984375 L 222.480469 196.683594 L 224.472656 196.683594 L 225.722656 197.816406 C 225.953125 197.695312 226.101562 197.503906 226.152344 197.261719 C 226.171875 197.207031 226.171875 197.152344 226.171875 197.097656 L 226.171875 193.160156 C 226.171875 193.117188 226.171875 193.058594 226.152344 193.003906 C 226.050781 192.5625 225.609375 192.304688 224.945312 192.304688 L 222.359375 192.304688 C 221.59375 192.304688 221.101562 192.640625 221.101562 193.160156 L 221.101562 197.066406 Z M 221.097656 197.0625"/><path fill="#00618A" d="M 237.980469 189.226562 C 236.925781 189.199219 236.121094 189.296875 235.429688 189.589844 C 235.234375 189.671875 234.921875 189.675781 234.890625 189.921875 C 234.996094 190.035156 235.015625 190.203125 235.101562 190.34375 C 235.265625 190.613281 235.542969 190.96875 235.789062 191.160156 C 236.0625 191.363281 236.339844 191.585938 236.632812 191.761719 C 237.148438 192.078125 237.722656 192.261719 238.222656 192.578125 C 238.515625 192.765625 238.804688 193 239.089844 193.210938 C 239.234375 193.316406 239.328125 193.476562 239.511719 193.542969 L 239.511719 193.511719 C 239.414062 193.390625 239.390625 193.21875 239.300781 193.089844 L 238.910156 192.699219 C 238.53125 192.1875 238.046875 191.742188 237.53125 191.371094 C 237.121094 191.074219 236.203125 190.671875 236.03125 190.191406 L 236 190.164062 C 236.292969 190.128906 236.632812 190.023438 236.902344 189.949219 C 237.351562 189.828125 237.753906 189.859375 238.222656 189.738281 L 238.851562 189.558594 L 238.851562 189.4375 C 238.617188 189.195312 238.449219 188.871094 238.191406 188.652344 C 237.519531 188.078125 236.785156 187.503906 236.03125 187.023438 C 235.613281 186.757812 235.09375 186.582031 234.652344 186.359375 C 234.5 186.28125 234.238281 186.242188 234.140625 186.117188 C 233.90625 185.816406 233.78125 185.4375 233.601562 185.09375 C 233.222656 184.363281 232.855469 183.566406 232.519531 182.796875 C 232.292969 182.273438 232.144531 181.757812 231.859375 181.289062 C 230.496094 179.035156 229.03125 177.675781 226.757812 176.335938 C 226.273438 176.054688 225.691406 175.941406 225.078125 175.792969 L 224.085938 175.734375 C 223.886719 175.648438 223.675781 175.402344 223.488281 175.28125 C 222.734375 174.800781 220.804688 173.761719 220.246094 175.125 C 219.894531 175.988281 220.769531 176.832031 221.085938 177.269531 C 221.304688 177.578125 221.589844 177.921875 221.746094 178.265625 C 221.847656 178.492188 221.867188 178.722656 221.957031 178.960938 C 222.175781 179.550781 222.363281 180.195312 222.644531 180.742188 C 222.789062 181.019531 222.945312 181.308594 223.125 181.558594 C 223.238281 181.710938 223.425781 181.777344 223.457031 182.011719 C 223.269531 182.273438 223.261719 182.675781 223.15625 183.007812 C 222.6875 184.496094 222.863281 186.34375 223.546875 187.445312 C 223.753906 187.78125 224.25 188.507812 224.925781 188.230469 C 225.519531 187.988281 225.386719 187.234375 225.558594 186.570312 C 225.59375 186.417969 225.570312 186.308594 225.648438 186.207031 L 225.648438 186.238281 L 226.1875 187.324219 C 226.585938 187.972656 227.296875 188.648438 227.898438 189.105469 C 228.210938 189.34375 228.457031 189.753906 228.859375 189.890625 L 228.859375 189.859375 L 228.828125 189.859375 C 228.75 189.738281 228.628906 189.6875 228.527344 189.589844 C 228.292969 189.359375 228.03125 189.070312 227.835938 188.804688 C 227.289062 188.058594 226.808594 187.242188 226.367188 186.390625 C 226.15625 185.984375 225.972656 185.535156 225.796875 185.121094 C 225.730469 184.960938 225.730469 184.722656 225.585938 184.636719 C 225.394531 184.941406 225.105469 185.1875 224.957031 185.542969 C 224.71875 186.117188 224.6875 186.8125 224.597656 187.535156 C 224.542969 187.554688 224.566406 187.542969 224.535156 187.566406 C 224.117188 187.464844 223.972656 187.03125 223.816406 186.660156 C 223.425781 185.722656 223.351562 184.210938 223.695312 183.128906 C 223.785156 182.847656 224.191406 181.96875 224.027344 181.710938 C 223.949219 181.453125 223.691406 181.300781 223.546875 181.105469 C 223.367188 180.863281 223.191406 180.542969 223.066406 180.261719 C 222.746094 179.527344 222.59375 178.707031 222.257812 177.964844 C 222.09375 177.613281 221.820312 177.253906 221.597656 176.941406 C 221.347656 176.59375 221.070312 176.335938 220.875 175.917969 C 220.808594 175.769531 220.714844 175.527344 220.816406 175.375 C 220.835938 175.273438 220.898438 175.214844 220.996094 175.191406 C 221.171875 175.058594 221.65625 175.238281 221.835938 175.3125 C 222.316406 175.515625 222.71875 175.707031 223.125 175.976562 C 223.324219 176.105469 223.519531 176.359375 223.757812 176.429688 L 224.027344 176.429688 C 224.449219 176.527344 224.921875 176.460938 225.316406 176.582031 C 226.015625 176.796875 226.640625 177.128906 227.207031 177.488281 C 228.9375 178.585938 230.351562 180.152344 231.320312 182.019531 C 231.476562 182.320312 231.542969 182.605469 231.679688 182.925781 C 231.957031 183.566406 232.304688 184.230469 232.578125 184.855469 C 232.855469 185.484375 233.121094 186.117188 233.511719 186.636719 C 233.714844 186.910156 234.503906 187.058594 234.859375 187.210938 C 235.113281 187.320312 235.523438 187.429688 235.761719 187.574219 C 236.214844 187.847656 236.65625 188.179688 237.082031 188.480469 C 237.292969 188.632812 237.949219 188.960938 237.980469 189.234375 Z M 237.980469 189.226562"/><path fill="#00618A" d="M 224.566406 177.722656 C 224.347656 177.71875 224.191406 177.75 224.027344 177.785156 L 224.027344 177.816406 L 224.058594 177.816406 C 224.164062 178.03125 224.347656 178.171875 224.476562 178.359375 L 224.777344 178.992188 L 224.808594 178.960938 C 224.992188 178.828125 225.078125 178.621094 225.078125 178.296875 C 225.003906 178.21875 224.992188 178.121094 224.925781 178.027344 C 224.839844 177.898438 224.671875 177.828125 224.566406 177.722656 Z M 224.566406 177.722656" fill-rule="evenodd"/><path fill="#E48E00" d="M 237.277344 197.925781 C 237.277344 198.683594 237.875 199.199219 238.542969 199.199219 C 239.210938 199.199219 239.808594 198.683594 239.808594 197.925781 C 239.808594 197.164062 239.210938 196.652344 238.542969 196.652344 C 237.875 196.652344 237.277344 197.164062 237.277344 197.925781 Z M 239.527344 197.925781 C 239.527344 198.5 239.085938 198.933594 238.542969 198.933594 C 237.992188 198.933594 237.5625 198.5 237.5625 197.925781 C 237.5625 197.347656 237.992188 196.917969 238.542969 196.917969 C 239.085938 196.917969 239.527344 197.347656 239.527344 197.925781 Z M 238.882812 198.652344 L 239.167969 198.652344 L 238.753906 198.011719 C 238.976562 197.988281 239.144531 197.878906 239.144531 197.617188 C 239.144531 197.320312 238.957031 197.199219 238.601562 197.199219 L 238.039062 197.199219 L 238.039062 198.652344 L 238.28125 198.652344 L 238.28125 198.023438 L 238.507812 198.023438 Z M 238.28125 197.820312 L 238.28125 197.402344 L 238.558594 197.402344 C 238.707031 197.402344 238.882812 197.429688 238.882812 197.597656 C 238.882812 197.800781 238.722656 197.820312 238.539062 197.820312 Z M 238.28125 197.820312" fill-rule="evenodd"/><g fill="#2E71E5"><g><g><path d="M 3.15625 0 L 3.15625 -29.265625 L 11.078125 -29.265625 L 11.078125 -6.390625 L 22.34375 -6.390625 L 22.34375 0 Z M 3.15625 0" transform="translate(88.423 251.052)"/></g></g></g><g fill="#2E71E5"><g><g><path d="M 19.578125 0 L 18.234375 -5.078125 L 9.421875 -5.078125 L 8.046875 0 L 0 0 L 8.84375 -27.234375 L 18.625 -27.234375 L 27.59375 0 Z M 16.71875 -11.09375 L 15.546875 -15.546875 C 15.273438 -16.535156 14.941406 -17.816406 14.546875 -19.390625 C 14.160156 -20.960938 13.90625 -22.085938 13.78125 -22.765625 C 13.675781 -22.140625 13.457031 -21.101562 13.125 -19.65625 C 12.800781 -18.207031 12.078125 -15.351562 10.953125 -11.09375 Z M 16.71875 -11.09375" transform="translate(139.477 249.552)"/></g></g></g><g fill="#2E71E5"><g><g><path d="M 14.75 0 L 9.203125 -19.53125 L 9.03125 -19.53125 C 9.289062 -16.207031 9.421875 -13.625 9.421875 -11.78125 L 9.421875 0 L 2.9375 0 L 2.9375 -27.125 L 12.6875 -27.125 L 18.34375 -7.875 L 18.5 -7.875 L 24.046875 -27.125 L 33.828125 -27.125 L 33.828125 0 L 27.09375 0 L 27.09375 -11.890625 C 27.09375 -12.515625 27.097656 -13.203125 27.109375 -13.953125 C 27.128906 -14.703125 27.21875 -16.550781 27.375 -19.5 L 27.203125 -19.5 L 21.734375 0 Z M 14.75 0" transform="translate(195.286 249.552)"/></g></g></g><g fill="#2E71E5"><g><g><path d="M 22.625 -18.5 C 22.625 -15.46875 21.726562 -13.125 19.9375 -11.46875 C 18.144531 -9.820312 15.609375 -9 12.328125 -9 L 10.265625 -9 L 10.265625 0 L 2.9375 0 L 2.9375 -27.125 L 12.328125 -27.125 C 15.742188 -27.125 18.3125 -26.375 20.03125 -24.875 C 21.757812 -23.382812 22.625 -21.257812 22.625 -18.5 Z M 10.265625 -14.96875 L 11.59375 -14.96875 C 12.695312 -14.96875 13.570312 -15.273438 14.21875 -15.890625 C 14.875 -16.515625 15.203125 -17.375 15.203125 -18.46875 C 15.203125 -20.289062 14.1875 -21.203125 12.15625 -21.203125 L 10.265625 -21.203125 Z M 10.265625 -14.96875" transform="translate(265.866 249.552)"/></g></g></g></svg>