<svg xmlns="http://www.w3.org/2000/svg" width="375" viewBox="0 0 375 375" height="375" version="1.0"><defs><clipPath id="a"><path d="M 85 27.292969 L 291 27.292969 L 291 294 L 85 294 Z M 85 27.292969"/></clipPath></defs><path fill="#FFF" d="M-37.5 -37.5H412.5V412.5H-37.5z"/><path fill="#FFF" d="M-37.5 -37.5H412.5V412.5H-37.5z"/><path fill="#FFF" d="M-37.5 -37.5H412.5V412.5H-37.5z"/><path fill="#C1C1BF" d="M 257.035156 270.726562 C 249.359375 270.066406 243.324219 264.421875 242.777344 253.207031 C 244.539062 223.433594 246.300781 192.617188 225.421875 172.742188 C 222.167969 147.992188 210.609375 138.90625 205.164062 123.015625 L 196.585938 116.941406 L 206.851562 101.089844 L 211.238281 101.207031 L 254.097656 186.738281 L 263.070312 229.851562 L 257.035156 270.722656 Z M 257.035156 270.726562"/><path fill="#C1C1BF" d="M 151.957031 116.132812 C 150.664062 124.484375 149.960938 132.683594 151.175781 140.609375 C 142.242188 152.597656 135.464844 164.699219 134.679688 177.152344 C 127.902344 194.976562 111.800781 210.058594 114.582031 245.246094 C 123.632812 254.5625 136.289062 263.226562 147.140625 272.234375 C 160.773438 283.488281 152.664062 298.335938 133.464844 294.816406 C 129.195312 290.175781 119.519531 261.097656 101.183594 243.195312 L 104.789062 219.722656 L 122.105469 173.980469 L 143.652344 139.953125 L 146.042969 125.257812 L 143.027344 87.710938 L 145.535156 73.984375 Z M 151.957031 116.132812"/><path fill="#FFF" d="M 147.21875 115.90625 C 136.109375 158.140625 111.671875 195.984375 106.640625 217.101562 C 101.605469 238.21875 107.898438 277.96875 120.484375 299.085938 C 133.070312 320.203125 198.515625 328.898438 213.621094 316.476562 C 228.722656 304.054688 290.394531 204.675781 262.703125 183.5625 C 235.015625 162.445312 242.566406 96.605469 218.652344 97.847656 C 194.742188 99.09375 148.476562 119.632812 147.21875 115.90625 Z M 147.21875 115.90625" fill-rule="evenodd"/><path fill="#C1C1BF" d="M 140.753906 63.351562 C 141.265625 60.644531 141.929688 58.09375 142.753906 55.695312 L 144.046875 64.085938 Z M 140.753906 63.351562"/><path fill="#C1C1BF" d="M 143.65625 148.761719 C 136.800781 161.289062 134.410156 173.355469 150.160156 175.480469 C 141.5 177.453125 130.726562 185.378906 119.835938 198.722656 L 120.070312 171.613281 L 133.039062 150.269531 Z M 143.65625 148.761719"/><path fill="#C1C1BF" d="M 59.734375 319.5625 C 83.554688 330.121094 100.363281 329.539062 115.523438 337.003906 C 127.515625 343.230469 139.621094 342.496094 146.90625 334.953125 C 153.097656 327.066406 157.679688 326.679688 166.808594 325.867188 C 181.734375 324.976562 196.308594 324.824219 209.472656 326.175781 L 224.519531 327.375 C 224.242188 344.042969 256.332031 346.089844 265.773438 333.445312 C 277.171875 320.066406 292.84375 314.074219 306.28125 304.367188 L 235.25 269.644531 C 217.03125 313.105469 149.136719 324.476562 139.734375 289.90625 L 59.734375 319.566406 Z M 59.734375 319.5625"/><path d="M 57.503906 321.03125 C 81.714844 331.589844 98.835938 330.96875 114.273438 338.472656 C 126.457031 344.65625 138.757812 343.960938 146.203125 336.382812 C 152.511719 328.535156 157.171875 328.148438 166.457031 327.335938 C 181.621094 326.40625 196.46875 326.289062 209.867188 327.605469 L 225.144531 328.84375 C 224.871094 345.507812 257.546875 347.519531 267.144531 334.875 C 278.742188 321.496094 294.6875 315.542969 308.359375 305.796875 L 236.078125 271.113281 C 217.546875 314.535156 148.472656 325.902344 138.914062 291.375 Z M 57.503906 321.03125"/><path fill="#B7BD00" d="M 285.867188 251.621094 C 297.460938 255.371094 289.980469 266.816406 295.894531 273.390625 C 298.441406 278.957031 303.808594 283.867188 312.78125 288.429688 C 327.785156 295.894531 309.765625 309.273438 291.546875 316.117188 C 269.332031 323.386719 265.023438 343.417969 240.695312 337.5 C 231.878906 334.601562 229.292969 326.710938 229.566406 314.53125 C 232.507812 289.628906 228.980469 272.269531 229.527344 255.292969 C 229.488281 248.488281 232.113281 247.675781 245.003906 249.453125 C 246.53125 270.0625 269.566406 270.605469 285.867188 251.621094 Z M 285.867188 251.621094"/><path fill="#F2DC00" d="M 262.632812 323.929688 C 280.03125 317.320312 297.582031 308.621094 311.726562 300.035156 C 316.074219 297.519531 316.660156 291.335938 310.550781 289.402344 C 297.308594 281.976562 290.097656 272.695312 291.625 260.632812 C 291.863281 256.417969 286.613281 251.933594 285.203125 255.953125 C 273.644531 294.3125 236.347656 292.261719 241.476562 254.292969 C 241.753906 253.167969 242.027344 252.046875 242.300781 250.964844 C 235.601562 249.613281 233.015625 251.082031 233.328125 256.148438 L 238.5 313.183594 C 239.792969 326.175781 250.488281 329.035156 262.632812 323.933594 Z M 262.632812 323.929688"/><g clip-path="url(#a)"><path d="M 270.707031 168.683594 C 284.144531 186.007812 297.894531 229.660156 287.003906 251.394531 C 274.234375 276.21875 245.320312 279.15625 244.066406 253.675781 C 245.867188 223.515625 247.59375 192.308594 226.75 172.203125 C 223.496094 147.105469 211.902344 137.902344 206.457031 121.816406 L 188.355469 108.824219 L 150.507812 113.660156 C 148.980469 122.824219 148.078125 131.753906 149.410156 140.417969 C 140.441406 152.480469 133.660156 164.660156 132.878906 177.152344 C 126.101562 195.054688 110 210.25 112.78125 245.59375 C 121.832031 254.988281 134.484375 263.691406 145.339844 272.738281 C 158.972656 284.066406 151.566406 296.90625 132.371094 293.347656 C 120.734375 280.664062 108.707031 268.214844 97.03125 255.570312 C 84.574219 246.832031 79.949219 235.617188 92.722656 218.601562 C 101.460938 207.082031 103.925781 182.0625 111.566406 171.96875 C 118.265625 162.03125 128.023438 153.140625 135.113281 143.199219 C 138.875 136.664062 140.050781 131.640625 139.460938 124.058594 L 137.855469 78.238281 C 136.796875 44.984375 155.328125 27.273438 181.109375 27.816406 C 210.335938 28.085938 234.3125 47.808594 234.625 83.148438 C 237.09375 100.355469 231.960938 110.21875 245.792969 134.808594 C 259.855469 160.714844 262.050781 159.324219 270.707031 168.683594 Z M 270.707031 168.683594"/></g><path fill="#C1C1BF" d="M 220.011719 150.464844 L 221.226562 155.066406 C 218.050781 149.421875 214.25 139.714844 209.472656 135.460938 C 208.023438 134.300781 206.140625 134.339844 205.003906 135.421875 C 198.65625 141.496094 182.910156 153.945312 170.292969 152.320312 C 160.578125 151.355469 151.097656 144.898438 149.019531 137.898438 C 147.921875 132.871094 148.433594 128.734375 149.097656 124.519531 L 208.804688 123.554688 C 207.589844 128.734375 215.542969 141.535156 220.011719 150.464844 Z M 220.011719 150.464844"/><path fill="#C1C1BF" d="M 155.71875 75.0625 C 161.671875 75.0625 167.003906 82.367188 166.960938 92.460938 C 166.921875 99.226562 162.457031 100.96875 159.085938 103.945312 C 157.597656 105.296875 157.246094 112.605469 155.40625 112.605469 C 149.488281 112.605469 145.023438 102.207031 145.023438 92.460938 C 145.023438 82.753906 149.800781 75.0625 155.71875 75.0625 Z M 155.71875 75.0625"/><path fill="#FFF" d="M 156.386719 81.40625 C 161.675781 81.40625 165.359375 84.035156 165.792969 90.144531 C 166.105469 94.359375 164.96875 101.128906 161.992188 102.558594 C 160.621094 103.214844 155.878906 109.132812 154.234375 109.054688 C 147.535156 108.746094 145.847656 95.945312 146.359375 89.835938 C 146.828125 83.726562 151.140625 81.40625 156.386719 81.40625 Z M 156.386719 81.40625"/><path d="M 155.019531 85.503906 C 158.660156 85.195312 162.03125 89.292969 162.5 94.628906 C 162.972656 99.964844 160.347656 104.605469 156.703125 104.914062 C 153.058594 105.222656 149.691406 101.125 149.21875 95.75 C 148.75 90.414062 151.375 85.8125 155.019531 85.503906 Z M 155.019531 85.503906"/><path fill="#C1C1BF" d="M 195.875 73.710938 C 204.457031 73.710938 211.46875 82.683594 211.46875 93.625 C 211.46875 104.605469 204.457031 113.539062 195.875 113.539062 C 187.296875 113.539062 180.359375 104.609375 180.359375 93.625 C 180.359375 82.683594 187.296875 73.710938 195.875 73.710938 Z M 195.875 73.710938"/><path fill="#FFF" d="M 200.148438 81.367188 C 206.066406 83.453125 209.472656 88.054688 209.90625 92.96875 C 210.414062 98.613281 208.101562 104.992188 203.128906 108.742188 C 201.71875 109.789062 185.417969 103.445312 184.480469 101.046875 C 183.066406 97.605469 182.207031 90.996094 183.265625 87.089844 C 183.695312 85.542969 185.144531 83.300781 187.300781 82.101562 C 190.707031 80.207031 195.722656 79.820312 200.148438 81.367188 Z M 200.148438 81.367188"/><path d="M 195.835938 84.582031 C 200.574219 84.582031 204.453125 89.066406 204.453125 94.519531 C 204.453125 100.007812 200.574219 104.496094 195.835938 104.496094 C 191.09375 104.496094 187.214844 100.007812 187.214844 94.519531 C 187.214844 89.066406 191.09375 84.582031 195.835938 84.582031 Z M 195.835938 84.582031"/><path fill="#E79A00" d="M 167.585938 97.222656 C 171.625 96.0625 178.007812 96.449219 182.4375 97.300781 C 186.863281 98.460938 198.65625 104.609375 211.152344 111.296875 C 212.757812 112.109375 213.230469 114.738281 211.152344 115.589844 C 207.941406 115.820312 213.464844 123.632812 207.824219 126.417969 C 199.359375 128.582031 185.804688 140.996094 179.105469 142 C 175.382812 142.8125 171.542969 142.925781 167.390625 142 C 154.304688 139.371094 150.859375 124.675781 144.707031 121.699219 C 143.023438 119.957031 143.882812 116.941406 144.433594 116.324219 C 145.097656 113.191406 159.28125 98.148438 167.585938 97.222656 Z M 167.585938 97.222656"/><path fill="#F2DE00" d="M 178.714844 97.953125 C 185.808594 98.726562 200.851562 107.65625 208.101562 111.253906 C 209.902344 112.21875 209.785156 115.121094 208.179688 115.585938 C 206.453125 116.550781 205.945312 115.351562 204.574219 115.160156 C 202.378906 114 198.777344 116.78125 195.914062 118.910156 C 179.421875 131.207031 176.128906 129.851562 162.808594 128.460938 C 158.1875 127.339844 155.171875 125.949219 153.839844 124.863281 C 154.816406 119.453125 165.160156 98.917969 168.570312 98.453125 C 169.429688 97.332031 175.738281 97.296875 178.714844 97.953125 Z M 178.714844 97.953125"/><path fill="#B77200" d="M 181.578125 101.277344 L 183.265625 102.011719 C 184.519531 102.707031 182.988281 104.5625 181.617188 103.984375 L 179.148438 103.132812 C 177.699219 101.933594 179.425781 100.234375 181.578125 101.277344 Z M 181.578125 101.277344"/><path fill="#C1C1BF" d="M 235.292969 195.164062 C 235.214844 196.398438 234.742188 196.59375 233.683594 195.433594 C 230.082031 189.246094 205.75 176.136719 193.917969 174.667969 C 191.6875 173.894531 191.804688 172.890625 194 172.582031 C 202.539062 172.582031 209.121094 168.867188 216.5625 168.867188 C 218.601562 168.945312 220.558594 169.71875 221.695312 170.878906 C 224.476562 172.660156 234.585938 186.421875 235.292969 195.164062 Z M 235.292969 195.164062"/><path fill="#B7A400" d="M 105.964844 247.5625 C 119.011719 260.132812 127.554688 279.15625 140.207031 296.363281 C 158.621094 318.25 143.929688 340.945312 113.996094 334.101562 C 98.992188 328.535156 77.40625 329.152344 60.050781 323.507812 C 47.863281 320.570312 47.433594 314.613281 53.664062 302.976562 C 55.855469 295.550781 56.054688 283.484375 54.015625 273.433594 C 52.917969 265.816406 56.484375 261.5625 64.710938 260.671875 C 71.683594 260.59375 81.402344 263.378906 86.691406 248.648438 C 90.648438 241.609375 100.128906 241.417969 105.964844 247.5625 Z M 105.964844 247.5625"/><path fill="#F2EC00" d="M 91.234375 255.410156 C 90.800781 245.707031 99.226562 243.734375 104.867188 249.648438 C 114.9375 261.828125 124.144531 275.285156 132.449219 290.832031 C 145.691406 311.867188 134.761719 332.554688 114.78125 324.703125 C 104.867188 319.214844 81.164062 316.777344 68.390625 314.535156 C 59.851562 313.835938 58.714844 308.347656 61.96875 305.253906 C 66.433594 300.1875 66.902344 288.046875 62.671875 277.683594 C 58.480469 271.265625 66.355469 264.1875 72.546875 267.125 C 78.265625 270.453125 91.78125 262.949219 91.234375 255.410156 Z M 91.234375 255.410156"/></svg>