<svg xmlns="http://www.w3.org/2000/svg" width="375" viewBox="0 0 375 375" height="375" version="1.0"><defs><clipPath id="a"><path d="M 82 138.296875 L 105 138.296875 L 105 224 L 82 224 Z M 82 138.296875"/></clipPath><clipPath id="b"><path d="M 60 138.296875 L 83 138.296875 L 83 225 L 60 225 Z M 60 138.296875"/></clipPath><clipPath id="c"><path d="M 80 212 L 87 212 L 87 236.546875 L 80 236.546875 Z M 80 212"/></clipPath><clipPath id="d"><path d="M 256 183 L 314.847656 183 L 314.847656 214 L 256 214 Z M 256 183"/></clipPath></defs><path fill="#FFF" d="M-37.5 -37.5H412.5V412.5H-37.5z"/><path fill="#FFF" d="M-37.5 -37.5H412.5V412.5H-37.5z"/><path fill="#21313C" d="M-37.5 -37.5H412.5V412.5H-37.5z"/><g clip-path="url(#a)"><path fill="#599636" d="M 82.085938 138.664062 L 84.707031 143.589844 C 85.277344 144.480469 85.9375 145.300781 86.683594 146.050781 C 88.878906 148.242188 90.96875 150.542969 92.835938 153.003906 C 97.277344 158.835938 100.273438 165.308594 102.414062 172.316406 C 103.699219 176.597656 104.394531 180.984375 104.449219 185.425781 C 104.664062 198.691406 100.113281 210.085938 90.910156 219.554688 C 89.417969 221.058594 87.8125 222.429688 86.09375 223.675781 C 85.179688 223.675781 84.753906 222.953125 84.378906 222.335938 C 83.660156 221.136719 83.257812 219.820312 83.042969 218.484375 C 82.71875 216.882812 82.507812 215.277344 82.613281 213.617188 L 82.613281 212.867188 C 82.5625 212.707031 81.757812 139.042969 82.078125 138.667969 Z M 82.085938 138.664062"/></g><g clip-path="url(#b)"><path fill="#6CAC48" d="M 82.085938 138.507812 C 81.976562 138.289062 81.871094 138.453125 81.765625 138.558594 C 81.816406 139.628906 81.441406 140.59375 80.851562 141.503906 C 80.210938 142.414062 79.351562 143.105469 78.496094 143.855469 C 73.734375 147.976562 69.988281 152.953125 66.988281 158.515625 C 63.03125 166.003906 60.945312 174.027344 60.359375 182.480469 C 60.09375 185.53125 61.320312 196.285156 62.285156 199.386719 C 64.902344 207.625 69.613281 214.523438 75.742188 220.515625 C 77.242188 221.957031 78.847656 223.296875 80.503906 224.582031 C 80.984375 224.582031 81.039062 224.152344 81.144531 223.832031 C 81.355469 223.148438 81.519531 222.449219 81.625 221.742188 C 82.109375 219.070312 82.375 216.394531 82.695312 213.71875 L 82.109375 138.507812 Z M 82.085938 138.507812"/></g><g clip-path="url(#c)"><path fill="#FFF" d="M 84.710938 226.9375 C 84.820312 225.707031 85.433594 224.691406 86.050781 223.675781 C 85.410156 223.410156 84.925781 222.871094 84.550781 222.28125 C 84.230469 221.746094 83.960938 221.082031 83.75 220.515625 C 83 218.269531 82.835938 215.914062 82.625 213.613281 L 82.625 212.222656 C 82.359375 212.4375 82.300781 214.253906 82.300781 214.523438 C 82.140625 216.980469 81.820312 219.390625 81.339844 221.742188 C 81.179688 222.703125 81.078125 223.667969 80.484375 224.523438 C 80.484375 224.632812 80.484375 224.742188 80.539062 224.898438 C 81.5 227.734375 81.769531 230.625 81.933594 233.566406 L 81.933594 234.636719 C 81.933594 235.917969 81.878906 235.652344 82.949219 236.078125 C 83.375 236.238281 83.863281 236.292969 84.285156 236.613281 C 84.609375 236.613281 84.660156 236.347656 84.660156 236.132812 L 84.5 234.367188 L 84.5 229.441406 C 84.449219 228.585938 84.609375 227.730469 84.71875 226.925781 Z M 84.710938 226.9375"/></g><path fill="#FFF" d="M 125.347656 204.5625 L 125.347656 209.65625 C 125.34375 209.859375 125.351562 210.058594 125.382812 210.257812 C 125.449219 210.863281 125.820312 211.230469 126.363281 211.398438 C 126.871094 211.535156 127.386719 211.632812 127.910156 211.703125 C 128.210938 211.734375 128.3125 211.867188 128.347656 212.191406 C 128.378906 213.332031 128.28125 213.46875 127.171875 213.398438 C 124.59375 213.265625 122.007812 213.234375 119.425781 213.398438 L 119.179688 213.398438 C 118.375 213.433594 118.308594 213.363281 118.308594 212.558594 C 118.308594 212.425781 118.34375 212.257812 118.34375 212.125 C 118.34375 211.878906 118.511719 211.757812 118.746094 211.757812 C 119.285156 211.691406 119.789062 211.554688 120.292969 211.453125 C 120.996094 211.289062 121.398438 210.851562 121.464844 210.148438 C 121.5625 209.375 121.5625 208.570312 121.5625 207.800781 L 121.597656 198.816406 C 121.609375 198.550781 121.546875 198.304688 121.414062 198.070312 C 121.28125 197.839844 121.097656 197.664062 120.863281 197.542969 C 120.253906 197.203125 119.617188 196.933594 118.949219 196.738281 C 118.746094 196.671875 118.546875 196.640625 118.378906 196.535156 C 117.886719 196.300781 117.875 195.867188 118.34375 195.597656 C 118.511719 195.5 118.710938 195.429688 118.914062 195.394531 C 120.953125 195.09375 122.941406 194.589844 124.882812 193.886719 C 125.285156 193.75 125.382812 193.789062 125.421875 194.1875 C 125.457031 194.433594 125.421875 194.726562 125.386719 194.957031 C 125.320312 195.394531 125.320312 195.828125 125.320312 196.234375 C 125.320312 196.402344 125.355469 196.570312 125.523438 196.671875 C 125.6875 196.769531 125.859375 196.671875 126.011719 196.574219 C 126.714844 196.03125 127.421875 195.53125 128.191406 195.101562 C 129.296875 194.496094 130.472656 193.960938 131.75 193.792969 C 133.296875 193.59375 134.632812 193.996094 135.808594 195 C 136.296875 195.4375 136.71875 195.929688 137.082031 196.472656 C 137.417969 196.964844 137.449219 196.976562 137.886719 196.640625 C 139.164062 195.703125 140.503906 194.867188 141.945312 194.261719 C 143.453125 193.625 144.996094 193.527344 146.539062 194.0625 C 148.113281 194.628906 149.1875 195.734375 149.828125 197.246094 C 150.367188 198.453125 150.597656 199.699219 150.597656 200.996094 L 150.597656 209.980469 C 150.597656 210.582031 150.84375 210.960938 151.4375 211.253906 C 152.074219 211.5 152.777344 211.625 153.449219 211.757812 C 153.886719 211.855469 153.886719 211.855469 153.886719 212.296875 C 153.820312 213.402344 153.71875 213.46875 152.644531 213.402344 C 149.949219 213.25 147.257812 213.25 144.5625 213.402344 C 144.023438 213.4375 144.023438 213.4375 143.992188 212.898438 L 143.992188 212.730469 C 143.960938 211.824219 143.960938 211.824219 144.832031 211.628906 L 145.703125 211.394531 C 146.007812 211.320312 146.257812 211.164062 146.449219 210.917969 C 146.644531 210.675781 146.742188 210.398438 146.746094 210.085938 L 146.84375 207.570312 L 146.777344 201.003906 C 146.75 200.410156 146.628906 199.84375 146.40625 199.292969 C 145.570312 197.246094 143.726562 196.511719 141.945312 196.710938 C 140.605469 196.847656 139.433594 197.382812 138.324219 198.15625 C 138.089844 198.320312 137.921875 198.523438 137.957031 198.859375 C 138.257812 201.003906 138.054688 203.152344 138.09375 205.296875 L 138.09375 209.957031 C 138.09375 210.792969 138.429688 211.195312 139.234375 211.398438 L 140.777344 211.734375 C 141.015625 211.769531 141.148438 211.867188 141.148438 212.136719 L 141.148438 212.382812 C 141.113281 213.320312 141.050781 213.363281 140.105469 213.351562 C 137.425781 213.21875 134.742188 213.253906 132.09375 213.351562 C 131.183594 213.386719 131.113281 213.285156 131.152344 212.371094 C 131.1875 211.832031 131.25 211.800781 131.757812 211.703125 L 132.859375 211.5 C 133.84375 211.300781 134.203125 210.933594 134.269531 209.890625 L 134.367188 207.644531 L 134.300781 200.90625 C 134.234375 200.066406 134.054688 199.261719 133.597656 198.492188 C 132.925781 197.253906 131.878906 196.617188 130.445312 196.546875 C 129 196.449219 127.726562 196.984375 126.519531 197.652344 C 125.679688 198.140625 125.3125 198.722656 125.378906 199.699219 L 125.378906 204.589844 Z M 188.523438 204.765625 L 188.523438 209.492188 C 188.53125 209.828125 188.550781 210.164062 188.589844 210.496094 C 188.605469 210.726562 188.6875 210.925781 188.835938 211.101562 C 188.984375 211.277344 189.171875 211.386719 189.394531 211.4375 C 189.976562 211.605469 190.566406 211.707031 191.171875 211.738281 C 191.507812 211.773438 191.574219 211.90625 191.609375 212.175781 L 191.609375 212.410156 C 191.574219 213.582031 191.441406 213.71875 190.300781 213.652344 C 187.75 213.484375 185.203125 213.515625 182.65625 213.652344 L 181.671875 213.6875 C 181.472656 213.6875 181.429688 213.589844 181.371094 213.449219 C 181.273438 212.980469 181.273438 212.511719 181.371094 212.042969 C 181.40625 211.839844 181.539062 211.796875 181.738281 211.742188 C 182.230469 211.675781 182.648438 211.574219 183.113281 211.496094 C 183.953125 211.292969 184.253906 210.957031 184.285156 210.089844 L 184.386719 207.273438 L 184.386719 199.027344 C 184.386719 198.421875 184.148438 198.054688 183.613281 197.785156 C 183.011719 197.449219 182.371094 197.214844 181.699219 196.980469 C 181.5 196.914062 181.296875 196.84375 181.132812 196.746094 C 180.695312 196.441406 180.640625 196.007812 181.066406 195.671875 C 181.261719 195.511719 181.484375 195.421875 181.734375 195.402344 C 183.882812 195.066406 185.960938 194.597656 187.972656 193.792969 C 188.207031 193.695312 188.308594 193.757812 188.410156 193.960938 C 188.507812 194.160156 188.542969 194.398438 188.507812 194.628906 L 188.410156 196.203125 C 188.410156 196.40625 188.3125 196.695312 188.476562 196.773438 C 188.675781 196.910156 188.8125 196.605469 188.976562 196.527344 C 189.972656 195.695312 191.058594 195.003906 192.230469 194.449219 C 193.273438 193.960938 194.34375 193.644531 195.550781 193.714844 C 197.800781 193.851562 199.410156 194.992188 200.449219 196.96875 C 200.988281 198.007812 201.21875 199.144531 201.320312 200.320312 L 201.417969 202.773438 L 201.449219 210.179688 C 201.484375 210.75 201.6875 211.121094 202.253906 211.320312 C 202.847656 211.519531 203.449219 211.664062 204.066406 211.757812 C 204.605469 211.824219 204.636719 211.925781 204.671875 212.429688 L 204.671875 212.59375 C 204.605469 213.734375 204.535156 213.765625 203.394531 213.699219 C 200.890625 213.566406 198.386719 213.566406 195.882812 213.699219 C 195.546875 213.734375 195.214844 213.699219 194.902344 213.734375 C 194.699219 213.734375 194.566406 213.699219 194.535156 213.496094 C 194.46875 213.0625 194.398438 212.625 194.5 212.15625 C 194.535156 211.953125 194.632812 211.855469 194.867188 211.820312 L 196.414062 211.574219 C 196.953125 211.441406 197.253906 211.082031 197.320312 210.59375 L 197.386719 209.652344 L 197.351562 202.648438 C 197.351562 201.84375 197.320312 201.039062 197.152344 200.234375 C 196.75 198.519531 195.441406 197.292969 193.667969 197.121094 C 192.121094 196.953125 190.722656 197.355469 189.441406 198.191406 C 188.804688 198.59375 188.535156 199.164062 188.535156 199.867188 L 188.535156 204.929688 C 188.535156 204.832031 188.535156 204.832031 188.570312 204.832031 Z M 188.523438 204.765625"/><g clip-path="url(#d)"><path fill="#FFF" d="M 286.730469 195.277344 C 286.363281 192.828125 285.457031 190.652344 283.878906 188.742188 C 282.484375 187.023438 280.761719 185.75 278.714844 184.917969 C 276.605469 184.046875 274.355469 183.777344 272.074219 183.710938 C 271.136719 183.679688 258.328125 183.878906 257.386719 183.710938 C 257.152344 183.679688 256.984375 183.746094 256.847656 183.949219 C 256.679688 184.191406 256.511719 184.449219 256.410156 184.71875 C 256.007812 185.625 256.007812 185.558594 256.980469 185.6875 C 257.785156 185.824219 258.554688 185.890625 259.328125 186.125 C 260.03125 186.359375 260.535156 186.761719 260.703125 187.535156 C 260.769531 187.902344 260.835938 199.699219 260.835938 205.199219 L 260.703125 209.125 C 260.667969 209.425781 260.636719 209.726562 260.535156 209.996094 C 260.398438 210.398438 260.167969 210.730469 259.765625 210.902344 C 259.316406 211.113281 258.847656 211.234375 258.355469 211.269531 C 257.449219 211.367188 257.316406 211.40625 257.015625 212.410156 L 256.914062 212.777344 C 256.847656 213.214844 256.882812 213.28125 257.316406 213.28125 L 267.34375 213.378906 L 271.269531 213.3125 L 273.988281 212.976562 C 277.070312 212.410156 279.820312 211.132812 282.167969 209.089844 C 283.519531 207.894531 284.59375 206.488281 285.386719 204.867188 C 286.328125 202.988281 286.730469 200.941406 286.828125 198.867188 C 286.996094 197.695312 286.925781 196.488281 286.730469 195.28125 Z M 281.867188 200.035156 C 281.734375 202.183594 281.296875 204.261719 280.191406 206.136719 C 278.785156 208.585938 276.769531 210.292969 273.988281 210.894531 C 272.78125 211.140625 271.574219 211.261719 270.308594 211.097656 C 269.398438 210.996094 268.53125 210.894531 267.691406 210.59375 C 266.183594 210.054688 265.644531 209.121094 265.613281 207.648438 L 265.578125 187.4375 C 265.578125 186.230469 266.121094 185.964844 266.988281 185.929688 C 268.296875 185.832031 269.636719 185.863281 270.945312 185.996094 C 272.34375 186.132812 273.699219 186.457031 275.003906 186.976562 C 275.976562 187.382812 276.859375 187.929688 277.65625 188.621094 C 279.464844 190.164062 280.671875 192.101562 281.335938 194.382812 C 281.875 196.230469 281.972656 198.105469 281.875 199.980469 Z M 314.601562 203.324219 C 314.601562 203.121094 314.601562 202.953125 314.566406 202.753906 C 314.265625 200.910156 313.289062 199.5 311.785156 198.429688 C 310.8125 197.726562 309.707031 197.257812 308.566406 196.921875 C 308.363281 196.855469 308.195312 196.785156 307.996094 196.753906 C 308.03125 196.585938 308.128906 196.554688 308.230469 196.519531 C 308.902344 196.183594 309.539062 195.816406 310.109375 195.3125 C 311.148438 194.441406 311.824219 193.367188 312.1875 192.058594 C 312.386719 191.355469 312.386719 190.652344 312.320312 189.914062 C 312.265625 189.039062 312.023438 188.21875 311.59375 187.453125 C 311.164062 186.691406 310.589844 186.058594 309.871094 185.554688 C 308.328125 184.414062 306.519531 183.945312 304.640625 183.910156 C 301.019531 183.84375 297.367188 183.910156 293.746094 183.910156 C 292.707031 183.910156 291.667969 183.976562 290.59375 183.8125 C 290.390625 183.777344 290.101562 183.714844 289.957031 183.949219 C 289.710938 184.382812 289.414062 184.816406 289.316406 185.320312 C 289.28125 185.558594 289.351562 185.6875 289.621094 185.722656 L 291.933594 186.058594 C 292.839844 186.195312 293.480469 186.695312 293.542969 187.5 C 293.609375 188.058594 293.640625 188.617188 293.640625 189.175781 L 293.574219 195.445312 L 293.539062 207.847656 C 293.539062 208.582031 293.441406 209.289062 293.304688 210.023438 C 293.269531 210.261719 293.175781 210.472656 293.015625 210.65625 C 292.859375 210.835938 292.664062 210.960938 292.433594 211.03125 C 291.765625 211.230469 291.125 211.433594 290.421875 211.433594 C 290.226562 211.414062 290.050781 211.457031 289.886719 211.5625 C 289.722656 211.671875 289.613281 211.816406 289.550781 212 C 289.414062 212.304688 289.304688 212.640625 289.25 212.941406 C 289.183594 213.34375 289.28125 213.480469 289.683594 213.429688 C 289.988281 213.398438 301.054688 213.667969 303.132812 213.464844 C 304.375 213.332031 305.585938 213.164062 306.820312 212.796875 C 308.929688 212.125 310.878906 211.152344 312.417969 209.507812 C 313.695312 208.167969 314.433594 206.558594 314.496094 204.683594 C 314.597656 204.246094 314.597656 203.8125 314.597656 203.339844 Z M 298.335938 189.585938 L 298.4375 186.90625 C 298.4375 186.402344 298.636719 186.167969 299.140625 186.066406 C 299.945312 185.898438 300.75 185.96875 301.554688 186 C 302.359375 186.066406 303.128906 186.167969 303.933594 186.402344 C 305.40625 186.839844 306.550781 187.679688 307.222656 189.082031 C 307.53125 189.730469 307.6875 190.414062 307.691406 191.128906 C 307.726562 192.070312 307.65625 192.972656 307.289062 193.875 C 306.71875 195.117188 305.816406 195.921875 304.507812 196.15625 C 303.195312 196.394531 299.476562 196.292969 298.90625 196.292969 C 298.402344 196.292969 298.367188 196.226562 298.367188 195.722656 L 298.367188 192.566406 C 298.289062 191.585938 298.277344 190.601562 298.332031 189.617188 Z M 309.230469 207.621094 C 308.664062 209.128906 307.621094 210.171875 306.148438 210.734375 C 305.34375 211.039062 304.539062 211.226562 303.695312 211.171875 C 302.652344 211.136719 301.617188 211.171875 300.578125 210.972656 C 299.167969 210.667969 298.53125 209.328125 298.429688 208.355469 C 298.265625 206.648438 298.363281 204.902344 298.332031 203.628906 L 298.332031 199.203125 C 298.332031 198.664062 298.398438 198.5 298.96875 198.5 L 302.125 198.535156 L 304.269531 198.78125 C 305.78125 199.117188 307.152344 199.6875 308.230469 200.859375 C 309.101562 201.796875 309.570312 202.933594 309.671875 204.175781 C 309.769531 205.347656 309.707031 206.488281 309.269531 207.597656 Z M 309.230469 207.621094"/></g><path fill="#FFF" d="M 224.039062 197.523438 L 224.910156 197.65625 C 225.847656 197.691406 226.957031 197.355469 227.289062 196.046875 C 227.476562 195.410156 227.476562 194.773438 227.289062 194.132812 C 227.085938 194.132812 226.988281 194.300781 226.886719 194.371094 C 226.382812 194.773438 225.8125 195.007812 225.210938 195.074219 C 224.003906 195.207031 222.796875 195.140625 221.625 194.707031 L 219.980469 194.136719 C 218.824219 193.757812 217.636719 193.601562 216.421875 193.671875 C 214.710938 193.804688 213.101562 194.375 211.59375 195.179688 C 209.984375 196.050781 208.84375 197.359375 208.304688 199.136719 C 208.003906 200.175781 207.96875 201.246094 208.101562 202.320312 C 208.4375 204.769531 209.710938 206.476562 211.992188 207.382812 C 212.128906 207.417969 212.226562 207.480469 212.359375 207.515625 C 212.660156 207.683594 212.695312 207.851562 212.425781 208.085938 L 211.585938 208.65625 L 209.574219 209.898438 C 209.070312 210.199219 209.007812 210.4375 209.171875 210.96875 C 209.375 211.605469 209.734375 212.144531 210.246094 212.578125 C 210.707031 212.976562 211.222656 213.289062 211.789062 213.515625 C 212.15625 213.683594 212.15625 213.761719 211.824219 214.058594 L 209.910156 215.429688 C 209.269531 215.921875 208.632812 216.410156 208.097656 217.039062 C 207.71875 217.445312 207.460938 217.914062 207.316406 218.445312 C 207.175781 218.980469 207.167969 219.519531 207.292969 220.054688 C 207.550781 221.25 208.128906 222.253906 209.035156 223.074219 C 209.921875 223.894531 210.949219 224.453125 212.121094 224.75 C 213.996094 225.289062 215.941406 225.316406 217.855469 224.949219 C 220.601562 224.445312 223.007812 223.234375 224.898438 221.164062 C 226.203125 219.789062 226.976562 218.179688 227.042969 216.257812 C 227.082031 215.699219 227.019531 215.15625 226.863281 214.621094 C 226.707031 214.085938 226.460938 213.59375 226.128906 213.148438 C 225.796875 212.699219 225.398438 212.320312 224.933594 212.015625 C 224.46875 211.707031 223.964844 211.492188 223.421875 211.363281 L 221.609375 211.027344 L 216.078125 210.535156 C 215.472656 210.503906 214.871094 210.402344 214.367188 210.101562 C 213.730469 209.699219 213.5625 208.929688 213.964844 208.425781 C 214.265625 208.058594 214.636719 207.820312 215.105469 207.789062 L 216.179688 207.6875 C 218.359375 207.46875 220.246094 206.605469 221.84375 205.109375 C 222.691406 204.324219 223.261719 203.375 223.554688 202.257812 C 223.957031 200.816406 223.957031 199.316406 223.621094 197.84375 C 223.523438 197.476562 223.554688 197.441406 224.023438 197.507812 Z M 215.816406 214.21875 C 216.019531 214.253906 216.21875 214.21875 216.421875 214.21875 C 217.828125 214.285156 219.273438 214.386719 220.648438 214.757812 C 221.097656 214.890625 221.53125 215.058594 221.953125 215.261719 C 223.296875 215.996094 223.800781 217.273438 223.628906 218.644531 C 223.429688 220.15625 222.589844 221.226562 221.28125 221.933594 C 220.410156 222.421875 219.4375 222.636719 218.429688 222.738281 C 218.0625 222.773438 217.726562 222.738281 217.359375 222.738281 C 216.1875 222.773438 215.042969 222.640625 213.9375 222.167969 C 213.167969 221.867188 212.53125 221.433594 211.960938 220.828125 C 210.789062 219.652344 210.242188 217.507812 211.996094 215.765625 C 213.066406 214.78125 214.277344 214.089844 215.816406 214.21875 Z M 219.640625 203.757812 C 218.9375 205.535156 217.394531 206.074219 215.851562 205.835938 C 214.445312 205.636719 213.402344 204.867188 212.734375 203.589844 C 211.863281 201.878906 211.632812 200.105469 212.132812 198.261719 C 212.5 196.886719 213.339844 195.847656 214.8125 195.609375 C 216.691406 195.273438 218.496094 195.945312 219.441406 197.824219 C 219.933594 198.730469 220.144531 199.835938 220.144531 201.410156 C 220.113281 202.046875 219.980469 202.917969 219.644531 203.757812 Z M 177.390625 201.476562 C 177.089844 199.667969 176.421875 198.023438 175.179688 196.652344 C 173.332031 194.605469 170.988281 193.707031 168.335938 193.699219 C 166.023438 193.664062 163.847656 194.339844 161.898438 195.542969 C 160.941406 196.117188 160.125 196.847656 159.445312 197.734375 C 158.765625 198.621094 158.277344 199.601562 157.976562 200.671875 C 157.40625 202.617188 157.433594 204.597656 157.878906 206.574219 C 159.050781 211.871094 163.144531 214.148438 168.035156 213.8125 C 169.476562 213.714844 170.851562 213.246094 172.15625 212.605469 C 174.105469 211.699219 175.511719 210.257812 176.484375 208.347656 C 177.253906 206.773438 177.589844 205.097656 177.554688 203.1875 Z M 172.632812 208.921875 C 172.511719 209.296875 172.339844 209.648438 172.117188 209.976562 C 171.894531 210.304688 171.628906 210.59375 171.324219 210.84375 C 171.015625 211.09375 170.679688 211.292969 170.316406 211.445312 C 169.949219 211.597656 169.570312 211.695312 169.175781 211.734375 C 167.703125 211.9375 166.324219 211.570312 165.085938 210.695312 C 164.179688 210.027344 163.472656 209.191406 162.972656 208.183594 C 161.597656 205.367188 161.363281 202.417969 162.066406 199.402344 C 162.296875 198.449219 162.765625 197.632812 163.472656 196.953125 C 164.714844 195.8125 166.15625 195.542969 167.769531 195.878906 C 169.3125 196.21875 170.484375 197.054688 171.449219 198.328125 C 172.414062 199.605469 172.855469 201.074219 173.125 202.621094 C 173.257812 203.390625 173.257812 204.195312 173.292969 204.699219 C 173.292969 206.308594 173.15625 207.640625 172.652344 208.921875 Z M 250.660156 201.75 C 250.414062 199.804688 249.6875 198.027344 248.3125 196.554688 C 246.5 194.574219 244.152344 193.738281 241.539062 193.703125 C 239.292969 193.667969 237.214844 194.304688 235.304688 195.414062 C 233.15625 196.6875 231.679688 198.496094 231.113281 200.945312 C 230.773438 202.277344 230.671875 203.632812 230.808594 205.003906 C 230.949219 206.375 231.316406 207.679688 231.917969 208.921875 C 233.019531 211.269531 234.902344 212.777344 237.382812 213.445312 C 240.132812 214.183594 242.75 213.847656 245.296875 212.605469 C 247.511719 211.535156 249.085938 209.859375 249.992188 207.578125 C 250.53125 206.238281 250.726562 204.796875 250.761719 203.121094 C 250.796875 202.816406 250.726562 202.28125 250.664062 201.746094 Z M 246.03125 208.484375 C 245.492188 210.296875 244.355469 211.46875 242.445312 211.738281 C 241.039062 211.941406 239.699219 211.605469 238.488281 210.800781 C 237.449219 210.09375 236.710938 209.15625 236.175781 208.050781 C 235.570312 206.878906 235.234375 205.636719 235.101562 204.367188 C 234.902344 202.789062 234.902344 201.25 235.269531 199.671875 C 235.339844 199.359375 235.441406 199.058594 235.570312 198.769531 C 236.511719 196.421875 238.589844 195.347656 241.039062 195.886719 C 242.679688 196.253906 243.921875 197.160156 244.859375 198.535156 C 245.769531 199.875 246.203125 201.351562 246.40625 202.949219 C 246.503906 203.585938 246.542969 204.257812 246.503906 204.828125 C 246.503906 206.132812 246.40625 207.339844 246.011719 208.511719 Z M 246.03125 208.484375"/></svg>