<svg xmlns="http://www.w3.org/2000/svg" width="375" viewBox="0 0 375 375" height="375" version="1.0"><defs><clipPath id="a"><path d="M 72.109375 67.144531 L 303.109375 67.144531 L 303.109375 307.894531 L 72.109375 307.894531 Z M 72.109375 67.144531"/></clipPath></defs><path fill="#FFF" d="M-37.5 -37.5H412.5V412.5H-37.5z"/><path fill="#FFF" d="M-37.5 -37.5H412.5V412.5H-37.5z"/><path fill="#FFF" d="M-37.5 -37.5H412.5V412.5H-37.5z"/><g clip-path="url(#a)"><path fill="#1560F8" d="M 187.609375 307.894531 L 232.59375 281.734375 L 303.058594 107.742188 L 303.058594 85.683594 L 271.574219 67.144531 L 219.09375 98.121094 L 219.09375 119.296875 L 187.609375 193.378906 L 156.128906 119.296875 L 156.128906 98.34375 L 155.976562 98.242188 L 156.128906 98.152344 L 103.632812 67.144531 L 72.160156 85.683594 L 72.160156 108.394531 L 143.035156 281.953125 Z M 187.609375 307.894531"/></g></svg>